<svg width="181" height="42" viewBox="0 0 181 42" fill="none" xmlns="http://www.w3.org/2000/svg">
<path d="M86.1557 0.354736H76.9238C74.3101 0.538937 71.8163 1.52441 69.7813 3.17728C67.7463 4.83015 66.2686 7.07029 65.5491 9.59339L61.0259 30.5763C62.7721 30.36 64.4543 29.7826 65.9659 28.8807C68.0277 27.2692 69.3785 24.9141 69.7295 22.3185L70.6401 17.7181C70.7093 17.3789 70.8973 17.0756 71.1701 16.8629C71.4429 16.6502 71.7827 16.5421 72.1281 16.5581C74.6104 16.5581 76.0657 14.2349 76.886 11.7096H72.1281C71.9267 11.7054 71.7282 11.6611 71.544 11.5795C71.3598 11.4979 71.1937 11.3805 71.0551 11.2341C70.9166 11.0877 70.8083 10.9152 70.7368 10.7266C70.6653 10.5381 70.6318 10.3372 70.6384 10.1356C70.7753 9.49131 71.0918 8.89913 71.5512 8.42772C72.0106 7.95631 72.5941 7.625 73.2339 7.47226H77.6177C81.8834 7.47226 84.9466 4.16983 86.1492 0.358046L86.1557 0.354736Z" fill="#062D59"/>
<path fill-rule="evenodd" clip-rule="evenodd" d="M84.6067 14.8573C84.6976 14.437 84.6931 14.0016 84.5936 13.5833C84.4941 13.165 84.302 12.7744 84.0316 12.4402C83.7613 12.1061 83.4196 11.837 83.0316 11.6528C82.6436 11.4686 82.2192 11.3739 81.7898 11.3758C80.7242 11.4263 79.704 11.8222 78.8826 12.5037C78.0611 13.1853 77.483 14.1156 77.2353 15.1547L73.9229 30.7633C75.9965 30.6161 77.9725 29.8247 79.5756 28.4994C81.1787 27.1741 82.329 25.3808 82.866 23.3697L84.6051 14.8491L84.6067 14.8573Z" fill="#062D59"/>
<path d="M100.936 0.00146484C98.728 0.368361 96.6777 1.38082 95.0429 2.91153C93.4082 4.44224 92.2619 6.42284 91.7482 8.60426L91.1674 11.376H90.0501C88.8473 11.4233 87.7054 11.9185 86.8479 12.7645C85.9904 13.6105 85.4789 14.7465 85.4136 15.9502C85.4007 16.3489 85.4704 16.7459 85.6182 17.1163C85.766 17.4867 85.9888 17.8224 86.2725 18.1024C86.5562 18.3823 86.8948 18.6005 87.2668 18.743C87.6388 18.8855 88.0362 18.9494 88.4341 18.9306H89.594L87.8533 26.7776C87.7171 27.2269 87.6908 27.7023 87.7764 28.164C87.862 28.6256 88.0571 29.0598 88.3452 29.4302C88.6334 29.8006 89.0061 30.0962 89.4321 30.2922C89.8582 30.4882 90.325 30.5789 90.7933 30.5566C91.8718 30.5291 92.9093 30.1365 93.7364 29.4427C94.5636 28.749 95.1315 27.7951 95.3477 26.7366L100.936 0.00309442V0.00146484Z" fill="#062D59"/>
<path fill-rule="evenodd" clip-rule="evenodd" d="M161.46 11.4582H148.376C146.478 11.5266 144.675 12.3069 143.325 13.6442C141.975 14.9815 141.177 16.7781 141.088 18.6776C141.08 19.3026 141.198 19.9228 141.435 20.501C141.672 21.0793 142.023 21.6036 142.467 22.0425C142.911 22.4815 143.44 22.8261 144.02 23.0556C144.601 23.2852 145.222 23.3949 145.846 23.3782H150.648C150.777 23.3701 150.907 23.3892 151.029 23.4344C151.15 23.4796 151.261 23.5499 151.354 23.6406C151.446 23.7313 151.519 23.8406 151.567 23.9612C151.615 24.0819 151.637 24.2113 151.632 24.341C151.614 24.7289 151.451 25.0957 151.175 25.3683C150.899 25.6408 150.53 25.7991 150.142 25.8115H145.056C143.649 25.8267 142.285 26.2966 141.166 27.1513C140.047 28.006 139.233 29.1998 138.847 30.5549H152.262C154.151 30.4705 155.939 29.6839 157.279 28.3488C158.619 27.0137 159.414 25.2261 159.507 23.3355C159.534 22.7108 159.429 22.0875 159.2 21.5057C158.971 20.924 158.623 20.3967 158.178 19.9579C157.733 19.5191 157.201 19.1785 156.617 18.9579C156.033 18.7374 155.409 18.6419 154.786 18.6776C154 18.6776 150.648 18.6349 149.864 18.6776C149.731 18.6818 149.599 18.6585 149.475 18.6091C149.352 18.5597 149.24 18.4853 149.147 18.3905C149.054 18.2958 148.981 18.1828 148.934 18.0585C148.886 17.9343 148.865 17.8016 148.871 17.6688C148.897 17.2834 149.063 16.921 149.338 16.65C149.613 16.379 149.977 16.2183 150.362 16.1983H156.449C159.017 16.1983 160.838 13.7683 161.46 11.4565V11.4582Z" fill="#062D59"/>
<path d="M178 30.5563H168.798C167.793 30.5943 166.792 30.4253 165.855 30.0599C164.918 29.6944 164.066 29.1403 163.352 28.4318C162.638 27.7233 162.076 26.8755 161.702 25.9409C161.329 25.0063 161.15 24.0048 161.179 22.9985C161.233 21.4907 161.585 20.0086 162.215 18.6376C162.844 17.2667 163.737 16.0338 164.844 15.0101C166.958 12.8372 169.828 11.5648 172.855 11.4579C174.881 11.3778 176.857 12.0996 178.355 13.4673C179.064 14.191 179.618 15.0527 179.982 15.999C180.346 16.9454 180.513 17.9565 180.471 18.9698C180.474 20.066 180.308 21.1561 179.979 22.2016H169.626C168.998 22.2231 168.402 22.4815 167.956 22.9252C167.51 23.3689 167.248 23.9649 167.223 24.5938C167.223 25.5961 167.753 26.1054 168.798 26.1054H171.571H171.863C173.237 26.0474 174.591 26.4556 175.705 27.264C176.819 28.0723 177.629 29.2335 178.002 30.5596L178 30.5563ZM170.827 15.4636C170.192 15.4795 169.587 15.7388 169.138 16.1882C168.907 16.4017 168.721 16.6592 168.591 16.9456C168.462 17.232 168.39 17.5414 168.381 17.8558C168.38 18.0619 168.421 18.266 168.5 18.4562C168.579 18.6463 168.695 18.8188 168.842 18.9634C168.988 19.108 169.162 19.2219 169.353 19.2983C169.544 19.3747 169.749 19.4122 169.955 19.4085H172.721C173.349 19.387 173.946 19.1285 174.391 18.6848C174.837 18.2412 175.099 17.6451 175.124 17.0162C175.132 16.8079 175.097 16.6001 175.02 16.4062C174.943 16.2123 174.827 16.0366 174.679 15.8903C174.53 15.744 174.353 15.6303 174.158 15.5566C173.964 15.4828 173.756 15.4506 173.548 15.462L170.827 15.4636Z" fill="#062D59"/>
<path d="M97.3672 30.7618L103.078 3.78027C103.325 2.73586 103.907 1.80106 104.734 1.11859C105.539 0.417584 106.564 0.0221439 107.631 0.00134061C108.1 -0.0122892 108.567 0.078152 108.997 0.266189C109.427 0.454226 109.811 0.735207 110.12 1.08901C110.34 1.36149 110.495 1.68078 110.574 2.02249C110.652 2.3642 110.651 2.71929 110.571 3.06063L108.791 11.4581H110.861C112.877 11.4171 114.829 12.1664 116.3 13.5463C117.01 14.2564 117.568 15.1027 117.943 16.0344C118.317 16.9662 118.499 17.9641 118.479 18.9683C118.428 20.4807 118.079 21.9682 117.453 23.3455C116.827 24.7227 115.936 25.9627 114.83 26.9944C112.717 29.1783 109.841 30.4568 106.806 30.5614C105.336 30.579 103.882 30.2568 102.557 29.6199C101.844 29.2511 101.061 29.042 100.26 29.0071C99.6829 29.0844 99.1282 29.2801 98.6305 29.5821C98.1328 29.884 97.7027 30.2857 97.3672 30.7618ZM107.244 18.5066C106.475 18.5329 105.745 18.8494 105.2 19.3924C104.654 19.9354 104.334 20.6649 104.304 21.4344C104.295 21.6885 104.338 21.9417 104.432 22.178C104.526 22.4142 104.668 22.6284 104.848 22.8069C105.029 22.9853 105.245 23.1242 105.482 23.2146C105.72 23.305 105.973 23.345 106.227 23.3321H110.469C111.245 23.3126 111.984 22.9956 112.533 22.4465C112.816 22.1847 113.043 21.869 113.202 21.518C113.361 21.167 113.448 20.7878 113.459 20.4026C113.463 20.1474 113.416 19.8939 113.319 19.6577C113.222 19.4215 113.078 19.2076 112.896 19.0291C112.527 18.6841 112.039 18.4957 111.534 18.5033L107.244 18.5066Z" fill="#062D59"/>
<path d="M136.336 30.7634C136.038 30.2781 135.634 29.8672 135.153 29.562C134.673 29.2568 134.129 29.0653 133.564 29.0021C132.656 29.0219 131.765 29.2465 130.957 29.6593C129.756 30.2395 128.437 30.5326 127.104 30.5153C125.091 30.5581 123.14 29.8138 121.666 28.4402C120.973 27.7696 120.427 26.9615 120.064 26.0677C119.674 25.0933 119.477 24.0518 119.485 23.0018C119.557 19.9662 120.828 17.0829 123.019 14.9839C125.123 12.8255 127.985 11.5756 130.996 11.5007H140.435L136.333 30.7618L136.336 30.7634ZM127.506 18.5065C126.739 18.5341 126.01 18.8508 125.466 19.3934C124.922 19.936 124.602 20.6643 124.571 21.4327C124.562 21.687 124.606 21.9403 124.7 22.1767C124.793 22.4131 124.935 22.6273 125.116 22.8058C125.297 22.9843 125.513 23.1231 125.751 23.2134C125.988 23.3037 126.242 23.3436 126.496 23.3304H130.734C131.51 23.3114 132.249 22.9943 132.799 22.4448C133.081 22.1834 133.307 21.8685 133.466 21.5184C133.624 21.1683 133.712 20.7901 133.723 20.4059C133.727 20.1523 133.679 19.9005 133.583 19.6659C133.487 19.4313 133.344 19.2188 133.163 19.0411C132.982 18.8635 132.768 18.7245 132.531 18.6326C132.295 18.5407 132.043 18.4978 131.79 18.5065H127.506Z" fill="#062D59"/>
<path fill-rule="evenodd" clip-rule="evenodd" d="M45.0898 11.4399H37.4739C34.7975 11.5595 32.2332 12.5505 30.1705 14.2624C28.1078 15.9743 26.6593 18.3136 26.0451 20.925L23.9746 30.7042C26.0458 30.5495 28.0181 29.7553 29.6198 28.4312C31.2215 27.107 32.3738 25.318 32.9178 23.3107L33.41 20.9595C33.5531 20.4088 33.8665 19.9174 34.3052 19.5556C34.744 19.1938 35.2857 18.9802 35.8529 18.9452C39.8692 18.9452 43.5525 16.3443 45.0848 11.4333L45.0898 11.4399Z" fill="#062D59"/>
<path d="M0 42.0001L6.4576 11.4401H17.2646C18.2524 11.3811 19.2416 11.5291 20.1691 11.8746C21.0965 12.2201 21.9418 12.7555 22.651 13.4467C23.3601 14.1378 23.9175 14.9695 24.2876 15.8886C24.6576 16.8077 24.8322 17.7939 24.8001 18.7844C24.7112 21.8464 23.4382 24.7541 21.2497 26.8943C20.2072 28.0036 18.9565 28.8962 17.5692 29.521C16.1818 30.1457 14.6851 30.4904 13.1646 30.5352H9.81109L8.98256 34.4784C8.67909 36.0512 7.97299 37.5181 6.93339 38.7355C6.09478 39.6844 5.06774 40.4477 3.91787 40.9765C2.68647 41.5577 1.35798 41.9048 0 42.0001H0ZM12.7971 18.5232C12.0284 18.5499 11.2982 18.8667 10.7529 19.41C10.2076 19.9533 9.88761 20.683 9.85703 21.4526C9.84731 21.7072 9.89071 21.961 9.98446 22.1978C10.0782 22.4346 10.2203 22.6493 10.4015 22.828C10.5828 23.0067 10.7993 23.1457 11.0372 23.2359C11.2751 23.3261 11.5291 23.3656 11.7832 23.352H16.0226C16.799 23.3328 17.5384 23.0157 18.0882 22.4664C18.3701 22.2046 18.597 21.8892 18.7556 21.5385C18.9142 21.1878 19.0013 20.809 19.0119 20.4241C19.0158 20.1711 18.9684 19.9199 18.8726 19.6858C18.7768 19.4516 18.6345 19.2394 18.4545 19.0618C18.2745 18.8843 18.0603 18.7452 17.8251 18.6529C17.5898 18.5606 17.3383 18.517 17.0857 18.5248L12.7971 18.5232Z" fill="#062D59"/>
<path d="M49.5167 30.4991C47.5007 30.5403 45.5484 29.7909 44.0763 28.4108C43.3662 27.7 42.8071 26.8526 42.4327 25.9196C42.0582 24.9867 41.8762 23.9875 41.8976 22.9823C41.9392 21.4702 42.2796 19.9814 42.8992 18.6018C43.5187 17.2222 44.405 15.9792 45.507 14.9447C47.6431 12.7769 50.534 11.5211 53.5741 11.4401C55.5784 11.4018 57.5179 12.1514 58.9767 13.5284C59.6844 14.2394 60.2416 15.086 60.6152 16.0176C60.9887 16.9492 61.1708 17.9466 61.1506 18.9503C61.1079 20.462 60.767 21.9503 60.1476 23.3294C59.5281 24.7086 58.6423 25.9514 57.5412 26.9863C55.4206 29.1523 52.5445 30.4113 49.5167 30.4991ZM49.8252 18.5051C49.0566 18.5318 48.3266 18.8487 47.7816 19.392C47.2366 19.9354 46.917 20.665 46.8868 21.4346C46.8771 21.6892 46.9205 21.9431 47.0142 22.18C47.108 22.4168 47.25 22.6316 47.4312 22.8104C47.6124 22.9893 47.8289 23.1284 48.0668 23.2188C48.3047 23.3092 48.5588 23.349 48.8129 23.3355H53.054C53.8295 23.3152 54.5677 22.9976 55.1163 22.4483C55.3986 22.1864 55.6259 21.8708 55.7848 21.5198C55.9437 21.1688 56.031 20.7896 56.0416 20.4044C56.0459 20.149 55.9981 19.8954 55.9011 19.6593C55.804 19.4231 55.6598 19.2092 55.4772 19.0308C55.1076 18.6859 54.619 18.4975 54.1138 18.5051H49.8252Z" fill="#062D59"/>
<path d="M160.91 36.9969C160.989 37.4432 160.97 37.9016 160.853 38.3396C160.736 38.7776 160.525 39.1846 160.234 39.5322C159.944 39.8797 159.58 40.1592 159.17 40.3511C158.76 40.5429 158.313 40.6425 157.86 40.6427H151.168C150.492 40.6485 149.836 40.414 149.316 39.9807C148.797 39.5474 148.448 38.9436 148.331 38.2768C148.245 37.8348 148.258 37.3793 148.368 36.9427C148.478 36.5061 148.683 36.0993 148.968 35.7512C149.253 35.4031 149.612 35.1224 150.018 34.929C150.424 34.7356 150.868 34.6344 151.317 34.6326H158.078C158.751 34.6374 159.401 34.876 159.918 35.3074C160.435 35.7389 160.786 36.3366 160.912 36.9985L160.91 36.9969Z" fill="#FB973E"/>
<path d="M176.705 36.9969C176.784 37.4431 176.764 37.9013 176.648 38.3392C176.531 38.7771 176.32 39.1841 176.029 39.5315C175.739 39.879 175.376 40.1586 174.966 40.3505C174.556 40.5425 174.109 40.6422 173.656 40.6427H166.961C166.285 40.6482 165.629 40.4135 165.11 39.9803C164.59 39.5471 164.241 38.9435 164.124 38.2768C164.038 37.8348 164.051 37.3793 164.161 36.9427C164.271 36.5061 164.476 36.0993 164.761 35.7512C165.046 35.4031 165.405 35.1224 165.811 34.929C166.217 34.7356 166.661 34.6344 167.11 34.6326H173.87C174.543 34.6371 175.193 34.8755 175.71 35.3071C176.227 35.7386 176.578 36.3365 176.703 36.9985L176.705 36.9969Z" fill="#FB973E"/>
<path d="M145.119 36.9969C145.198 37.4432 145.178 37.9013 145.061 38.339C144.944 38.7768 144.732 39.1836 144.442 39.531C144.151 39.8784 143.788 40.1579 143.378 40.3499C142.969 40.542 142.522 40.6419 142.069 40.6427H135.372C134.696 40.6479 134.04 40.4131 133.521 39.9799C133.002 39.5468 132.652 38.9434 132.535 38.2768C132.45 37.8347 132.463 37.3793 132.573 36.9429C132.684 36.5064 132.889 36.0997 133.174 35.7518C133.46 35.4038 133.818 35.1231 134.224 34.9296C134.63 34.7362 135.073 34.6348 135.523 34.6326H142.282C142.955 34.638 143.605 34.8767 144.122 35.308C144.639 35.7394 144.991 36.3368 145.117 36.9985L145.119 36.9969Z" fill="#FB973E"/>
</svg>
