<svg width="272" height="102" viewBox="0 0 272 102" fill="none" xmlns="http://www.w3.org/2000/svg">
<path d="M130.874 18.4733H118.565C115.08 18.7189 111.755 20.0329 109.042 22.2367C106.328 24.4405 104.358 27.4274 103.399 30.7915L97.3678 58.7687C99.6961 58.4804 101.939 57.7105 103.954 56.5079C106.704 54.3593 108.505 51.2191 108.973 47.7584L110.187 41.6245C110.279 41.1721 110.53 40.7677 110.893 40.4842C111.257 40.2006 111.71 40.0564 112.171 40.0778C115.481 40.0778 117.421 36.9802 118.515 33.6131H112.171C111.902 33.6075 111.638 33.5485 111.392 33.4397C111.146 33.3309 110.925 33.1743 110.74 32.9791C110.555 32.7839 110.411 32.5539 110.316 32.3025C110.22 32.0511 110.176 31.7832 110.184 31.5144C110.367 30.6554 110.789 29.8658 111.402 29.2373C112.014 28.6087 112.792 28.167 113.645 27.9633H119.49C125.178 27.9633 129.262 23.5601 130.866 18.4777L130.874 18.4733Z" fill="#135075"/>
<path fill-rule="evenodd" clip-rule="evenodd" d="M128.809 37.81C128.93 37.2496 128.924 36.6692 128.791 36.1114C128.659 35.5536 128.403 35.0328 128.042 34.5873C127.682 34.1418 127.226 33.783 126.709 33.5374C126.191 33.2917 125.626 33.1655 125.053 33.168C123.632 33.2354 122.272 33.7632 121.177 34.672C120.082 35.5807 119.311 36.8211 118.98 38.2065L114.564 59.018C117.329 58.8218 119.963 57.7666 122.101 55.9995C124.238 54.2324 125.772 51.8415 126.488 49.16L128.807 37.7991L128.809 37.81Z" fill="#135075"/>
<path d="M150.581 18.002C147.637 18.4911 144.904 19.8411 142.724 21.882C140.544 23.923 139.016 26.5638 138.331 29.4723L137.557 33.168H136.067C134.463 33.2311 132.941 33.8913 131.797 35.0193C130.654 36.1473 129.972 37.662 129.885 39.2669C129.868 39.7985 129.961 40.3278 130.158 40.8217C130.355 41.3156 130.652 41.7632 131.03 42.1365C131.408 42.5098 131.86 42.8006 132.356 42.9907C132.852 43.1807 133.382 43.2659 133.912 43.2408H135.459L133.138 53.7035C132.956 54.3025 132.921 54.9365 133.035 55.5519C133.149 56.1674 133.409 56.7465 133.794 57.2403C134.178 57.7341 134.675 58.1283 135.243 58.3896C135.811 58.651 136.433 58.7718 137.058 58.7421C138.496 58.7054 139.879 58.182 140.982 57.257C142.085 56.332 142.842 55.0601 143.13 53.6487L150.581 18.0041V18.002Z" fill="#135075"/>
<path fill-rule="evenodd" clip-rule="evenodd" d="M231.28 33.2776H213.834C211.304 33.3688 208.9 34.4091 207.1 36.1922C205.3 37.9753 204.236 40.3708 204.117 42.9034C204.106 43.7368 204.263 44.5637 204.58 45.3347C204.896 46.1057 205.364 46.8048 205.956 47.3901C206.549 47.9754 207.253 48.4348 208.027 48.7409C208.801 49.0469 209.629 49.1932 210.461 49.171H216.864C217.036 49.1601 217.209 49.1856 217.371 49.2459C217.534 49.3062 217.681 49.3998 217.805 49.5208C217.929 49.6418 218.026 49.7874 218.09 49.9483C218.153 50.1092 218.183 50.2817 218.176 50.4547C218.152 50.9719 217.935 51.461 217.566 51.8244C217.198 52.1878 216.707 52.3988 216.19 52.4154H209.409C207.532 52.4356 205.713 53.0621 204.221 54.2017C202.729 55.3414 201.644 56.9331 201.129 58.7399H219.016C221.534 58.6274 223.919 57.5785 225.706 55.7984C227.492 54.0182 228.552 51.6348 228.676 49.114C228.711 48.281 228.572 47.4499 228.267 46.6743C227.961 45.8986 227.497 45.1956 226.904 44.6105C226.311 44.0254 225.602 43.5713 224.823 43.2773C224.044 42.9832 223.212 42.8559 222.381 42.9034C221.333 42.9034 216.864 42.8465 215.818 42.9034C215.641 42.9091 215.465 42.878 215.3 42.8121C215.136 42.7463 214.987 42.647 214.863 42.5207C214.738 42.3944 214.642 42.2437 214.578 42.0781C214.515 41.9124 214.486 41.7355 214.495 41.5584C214.529 41.0446 214.751 40.5613 215.117 40.2C215.484 39.8387 215.97 39.6244 216.483 39.5977H224.599C228.022 39.5977 230.451 36.3577 231.28 33.2754V33.2776Z" fill="#135075"/>
<path d="M253.334 58.7414H241.064C239.724 58.792 238.389 58.5667 237.14 58.0795C235.891 57.5922 234.755 56.8534 233.803 55.9087C232.85 54.9641 232.102 53.8337 231.603 52.5875C231.105 51.3414 230.867 50.0061 230.905 48.6643C230.978 46.6539 231.447 44.6778 232.286 42.8499C233.125 41.0219 234.316 39.3781 235.792 38.0132C238.611 35.1159 242.437 33.4194 246.474 33.2769C249.175 33.17 251.809 34.1325 253.806 35.9561C254.752 36.921 255.491 38.0699 255.976 39.3317C256.461 40.5936 256.683 41.9416 256.628 43.2927C256.632 44.7543 256.411 46.2078 255.972 47.6018H242.169C241.331 47.6304 240.535 47.9751 239.941 48.5666C239.347 49.1582 238.998 49.9529 238.964 50.7914C238.964 52.1278 239.67 52.8069 241.064 52.8069H245.15C246.983 52.7296 248.788 53.2738 250.274 54.3516C251.759 55.4294 252.838 56.9777 253.336 58.7458L253.334 58.7414ZM243.77 38.6178C242.923 38.639 242.117 38.9848 241.517 39.5839C241.209 39.8686 240.962 40.212 240.789 40.5938C240.615 40.9756 240.52 41.3883 240.508 41.8074C240.507 42.0822 240.561 42.3543 240.667 42.6079C240.772 42.8615 240.927 43.0914 241.123 43.2842C241.318 43.4771 241.55 43.6289 241.805 43.7308C242.059 43.8327 242.332 43.8826 242.606 43.8776H246.294C247.132 43.849 247.928 43.5044 248.522 42.9128C249.116 42.3212 249.465 41.5265 249.499 40.688C249.51 40.4102 249.463 40.1331 249.36 39.8746C249.258 39.6161 249.103 39.3818 248.905 39.1868C248.707 38.9917 248.471 38.8401 248.211 38.7418C247.951 38.6434 247.674 38.6005 247.397 38.6156L243.77 38.6178Z" fill="#135075"/>
<path d="M145.823 59.0157L153.438 23.0404C153.767 21.6478 154.542 20.4014 155.645 19.4915C156.718 18.5568 158.086 18.0295 159.508 18.0018C160.134 17.9836 160.756 18.1042 161.329 18.3549C161.903 18.6056 162.414 18.9803 162.827 19.452C163.12 19.8153 163.327 20.241 163.431 20.6967C163.536 21.1523 163.535 21.6257 163.428 22.0808L161.055 33.2774H163.815C166.503 33.2227 169.105 34.2219 171.067 36.0618C172.013 37.0085 172.758 38.1369 173.257 39.3792C173.756 40.6216 173.999 41.9522 173.972 43.291C173.904 45.3076 173.439 47.2909 172.604 49.1273C171.77 50.9637 170.581 52.617 169.107 53.9925C166.289 56.9044 162.454 58.6091 158.408 58.7485C156.448 58.772 154.509 58.3424 152.742 57.4932C151.793 57.0015 150.747 56.7227 149.68 56.6761C148.91 56.7792 148.171 57.0402 147.507 57.4428C146.844 57.8454 146.27 58.3809 145.823 59.0157ZM158.992 42.6754C157.967 42.7106 156.993 43.1325 156.266 43.8565C155.539 44.5806 155.113 45.5532 155.072 46.5792C155.06 46.918 155.118 47.2556 155.243 47.5706C155.368 47.8857 155.557 48.1712 155.798 48.4091C156.039 48.6471 156.327 48.8322 156.643 48.9528C156.96 49.0733 157.297 49.1267 157.636 49.1095H163.292C164.327 49.0835 165.312 48.6609 166.044 47.9287C166.421 47.5795 166.724 47.1586 166.936 46.6907C167.148 46.2227 167.264 45.7171 167.278 45.2035C167.284 44.8631 167.221 44.5251 167.092 44.2102C166.963 43.8953 166.771 43.6101 166.528 43.3721C166.036 42.9121 165.385 42.6609 164.712 42.6711L158.992 42.6754Z" fill="#135075"/>
<path d="M197.782 59.0175C197.384 58.3704 196.845 57.8226 196.204 57.4156C195.564 57.0087 194.839 56.7534 194.085 56.6691C192.875 56.6955 191.687 56.9951 190.609 57.5454C189.008 58.3191 187.25 58.7098 185.472 58.6868C182.788 58.7438 180.187 57.7514 178.221 55.9199C177.297 55.0258 176.57 53.9484 176.086 52.7566C175.565 51.4574 175.302 50.0688 175.314 48.6688C175.41 44.6212 177.104 40.7769 180.025 37.9782C182.83 35.1004 186.647 33.4338 190.661 33.334H203.246L197.777 59.0154L197.782 59.0175ZM186.008 42.6751C184.985 42.7118 184.013 43.1341 183.288 43.8575C182.562 44.581 182.136 45.5521 182.095 46.5767C182.083 46.9156 182.141 47.2534 182.266 47.5686C182.391 47.8838 182.58 48.1694 182.822 48.4074C183.063 48.6454 183.351 48.8305 183.668 48.9509C183.984 49.0713 184.323 49.1244 184.661 49.1069H190.311C191.347 49.0815 192.332 48.6588 193.065 47.9261C193.441 47.5775 193.743 47.1576 193.954 46.6909C194.166 46.2241 194.282 45.7198 194.297 45.2075C194.302 44.8694 194.239 44.5337 194.11 44.2209C193.982 43.9081 193.792 43.6247 193.551 43.3879C193.31 43.151 193.023 42.9657 192.709 42.8432C192.394 42.7206 192.057 42.6634 191.72 42.6751H186.008Z" fill="#135075"/>
<path fill-rule="evenodd" clip-rule="evenodd" d="M76.1197 33.2529H65.9652C62.3967 33.4123 58.9777 34.7337 56.2274 37.0162C53.477 39.2988 51.5458 42.4179 50.7268 45.8997L47.9661 58.9387C50.7278 58.7323 53.3575 57.6735 55.4931 55.9079C57.6287 54.1424 59.165 51.757 59.8904 49.0806L60.5466 45.9457C60.7375 45.2113 61.1553 44.5562 61.7403 44.0738C62.3253 43.5914 63.0476 43.3066 63.8039 43.26C69.159 43.26 74.0699 39.7921 76.1131 33.2441L76.1197 33.2529Z" fill="#135075"/>
<path d="M16 73.9999L24.6101 33.2532H39.0194C40.3365 33.1745 41.6555 33.3718 42.8921 33.8325C44.1287 34.2931 45.2558 35.007 46.2013 35.9286C47.1469 36.8501 47.8901 37.959 48.3835 39.1845C48.8768 40.4099 49.1096 41.7249 49.0668 43.0455C48.9483 47.1282 47.251 51.0052 44.3329 53.8587C42.943 55.3379 41.2753 56.528 39.4256 57.361C37.5758 58.194 35.5801 58.6535 33.5528 58.7133H29.0815L27.9768 63.9709C27.5721 66.0679 26.6307 68.0238 25.2445 69.647C24.1264 70.9122 22.757 71.9299 21.2238 72.6351C19.582 73.41 17.8106 73.8728 16 73.9999ZM33.0628 42.6972C32.0378 42.7329 31.0642 43.1553 30.3372 43.8797C29.6102 44.6041 29.1835 45.577 29.1427 46.6032C29.1297 46.9426 29.1876 47.281 29.3126 47.5968C29.4376 47.9125 29.627 48.1987 29.8687 48.437C30.1104 48.6753 30.399 48.8605 30.7162 48.9808C31.0334 49.1011 31.3722 49.1539 31.7109 49.1356H37.3635C38.3987 49.11 39.3845 48.6873 40.1176 47.9549C40.4934 47.6058 40.796 47.1852 41.0074 46.7177C41.2189 46.2501 41.3351 45.7449 41.3491 45.2318C41.3543 44.8945 41.2912 44.5596 41.1634 44.2474C41.0357 43.9352 40.8461 43.6522 40.606 43.4155C40.3659 43.1787 40.0804 42.9932 39.7668 42.8702C39.4531 42.7471 39.1177 42.689 38.781 42.6994L33.0628 42.6972Z" fill="#135075"/>
<path d="M82.0225 58.6651C79.3344 58.7201 76.7313 57.7209 74.7686 55.8807C73.8218 54.933 73.0763 53.8031 72.577 52.5592C72.0778 51.3153 71.8351 49.983 71.8636 48.6427C71.9191 46.6266 72.373 44.6415 73.199 42.802C74.0251 40.9626 75.2069 39.3053 76.6762 37.9259C79.5243 35.0356 83.3788 33.3611 87.4323 33.2532C90.1047 33.202 92.6907 34.2016 94.6358 36.0375C95.5794 36.9856 96.3224 38.1144 96.8204 39.3565C97.3184 40.5986 97.5612 41.9285 97.5343 43.2668C97.4774 45.2823 97.0229 47.2667 96.1969 49.1056C95.371 50.9445 94.1899 52.6016 92.7217 53.9814C89.8942 56.8694 86.0595 58.5481 82.0225 58.6651ZM82.4337 42.6731C81.409 42.7088 80.4356 43.1313 79.709 43.8557C78.9823 44.5802 78.5561 45.553 78.5159 46.5791C78.5029 46.9186 78.5608 47.2571 78.6858 47.5729C78.8108 47.8888 79.0001 48.1751 79.2418 48.4136C79.4834 48.6521 79.772 48.8375 80.0892 48.9581C80.4064 49.0786 80.7452 49.1316 81.084 49.1137H86.7388C87.7729 49.0866 88.7571 48.6632 89.4885 47.9307C89.865 47.5816 90.168 47.1607 90.3798 46.6927C90.5917 46.2248 90.7081 45.7191 90.7223 45.2055C90.7281 44.865 90.6643 44.5269 90.5349 44.212C90.4055 43.8971 90.2132 43.6119 89.9698 43.3741C89.4769 42.9142 88.8255 42.6631 88.152 42.6731H82.4337Z" fill="#135075"/>
<path d="M235.514 73.9955C235.619 74.5907 235.593 75.2017 235.437 75.7858C235.282 76.3698 235 76.9125 234.613 77.3759C234.225 77.8392 233.741 78.2119 233.194 78.4678C232.647 78.7236 232.051 78.8563 231.447 78.8566H222.524C221.623 78.8644 220.748 78.5516 220.055 77.9739C219.363 77.3963 218.897 76.5912 218.742 75.702C218.627 75.1127 218.644 74.5054 218.791 73.9233C218.937 73.3412 219.211 72.7987 219.591 72.3346C219.971 71.8705 220.449 71.4962 220.991 71.2383C221.532 70.9805 222.124 70.8456 222.723 70.8431H231.738C232.635 70.8496 233.502 71.1676 234.191 71.7429C234.88 72.3182 235.348 73.1152 235.516 73.9977L235.514 73.9955Z" fill="#FB973E"/>
<path d="M256.573 73.9955C256.679 74.5905 256.653 75.2014 256.497 75.7852C256.341 76.3691 256.06 76.9118 255.673 77.3751C255.285 77.8384 254.801 78.2111 254.255 78.4671C253.708 78.723 253.112 78.856 252.509 78.8566H243.581C242.68 78.864 241.805 78.5511 241.113 77.9734C240.42 77.3958 239.955 76.591 239.799 75.702C239.684 75.1128 239.701 74.5054 239.848 73.9233C239.995 73.3412 240.268 72.7987 240.648 72.3346C241.029 71.8705 241.507 71.4962 242.048 71.2383C242.589 70.9805 243.181 70.8456 243.78 70.8431H252.793C253.69 70.8492 254.557 71.167 255.246 71.7424C255.936 72.3178 256.404 73.115 256.571 73.9977L256.573 73.9955Z" fill="#FB973E"/>
<path d="M214.459 73.9955C214.563 74.5906 214.537 75.2014 214.381 75.785C214.225 76.3687 213.943 76.9112 213.556 77.3743C213.168 77.8375 212.684 78.2102 212.138 78.4663C211.591 78.7223 210.995 78.8555 210.392 78.8566H201.463C200.561 78.8635 199.687 78.5504 198.995 77.9729C198.302 77.3954 197.837 76.5908 197.68 75.702C197.566 75.1127 197.584 74.5054 197.731 73.9235C197.878 73.3416 198.152 72.7993 198.532 72.3354C198.913 71.8714 199.39 71.4971 199.932 71.2392C200.473 70.9812 201.064 70.846 201.664 70.8431H210.677C211.574 70.8503 212.44 71.1686 213.13 71.7437C213.819 72.3189 214.288 73.1154 214.457 73.9977L214.459 73.9955Z" fill="#FB973E"/>
<path d="M32.2295 74.6033C32.6981 74.9733 33.3025 75.1583 34.0425 75.1583C34.9058 75.1583 36.0035 74.8746 37.3355 74.3073C38.1248 69.744 38.7415 65.2546 39.1855 60.8393H39.1115C37.7795 60.8393 36.5585 61.2956 35.4485 62.2083C34.3385 63.121 33.4135 64.2556 32.6735 65.6123C31.9581 66.969 31.4648 68.3133 31.1935 69.6453C31.0701 70.262 31.0085 70.8663 31.0085 71.4583C31.0085 72.9136 31.4155 73.962 32.2295 74.6033ZM40.0735 49.1103C40.0981 48.6663 40.4065 48.284 40.9985 47.9633C41.5905 47.618 42.1948 47.4453 42.8115 47.4453C43.5761 47.4453 43.9461 47.729 43.9215 48.2963C43.5021 56.4363 42.6141 64.8353 41.2575 73.4933C41.6521 73.6906 41.8495 73.9496 41.8495 74.2703C41.8495 74.6403 41.5535 74.998 40.9615 75.3433L40.7395 76.7123C40.6408 77.181 40.2831 77.588 39.6665 77.9333C39.0745 78.254 38.4825 78.4143 37.8905 78.4143C37.5205 78.4143 37.2245 78.3403 37.0025 78.1923C36.7805 78.0196 36.7065 77.773 36.7805 77.4523C36.7805 77.329 36.7928 77.2426 36.8175 77.1933C35.2388 77.6866 33.9315 77.9333 32.8955 77.9333C31.7608 77.9333 30.7371 77.6866 29.8245 77.1933C28.9118 76.7246 28.2458 76.0463 27.8265 75.1583C27.4071 74.2703 27.1975 73.2713 27.1975 72.1613C27.1975 71.7666 27.2468 71.224 27.3455 70.5333C27.6908 68.5353 28.4308 66.6113 29.5655 64.7613C30.7001 62.9113 32.1308 61.3943 33.8575 60.2103C35.5841 59.0263 37.4465 58.3973 39.4445 58.3233C39.7405 54.944 39.9501 51.873 40.0735 49.1103ZM58.3226 64.8723C58.3226 62.2576 56.7932 60.198 53.7346 58.6933C52.9699 59.3346 52.2052 60.1856 51.4406 61.2463C50.5032 62.603 49.7262 64.12 49.1096 65.7973C48.8629 66.4633 48.6286 67.376 48.4066 68.5353C48.1846 69.67 48.0736 70.7306 48.0736 71.7173C48.0736 72.7286 48.2092 73.5426 48.4806 74.1593C48.7766 74.7513 49.2452 75.0473 49.8866 75.0473C50.4046 75.0473 51.0089 74.8376 51.6996 74.4183C53.5989 73.3083 55.1776 71.927 56.4356 70.2743C57.6936 68.6216 58.3226 66.821 58.3226 64.8723ZM59.3586 58.1753C60.2466 59.014 60.9249 59.9636 61.3936 61.0243C61.8869 62.085 62.1336 63.2073 62.1336 64.3913C62.1336 66.0933 61.6402 67.82 60.6536 69.5713C59.9876 70.7553 59.0132 72.001 57.7306 73.3083C56.4479 74.6156 55.0172 75.7256 53.4386 76.6383C51.8846 77.5263 50.3922 77.9703 48.9616 77.9703C48.0736 77.9703 47.2349 77.773 46.4456 77.3783C44.7682 76.4656 43.9296 74.8253 43.9296 72.4573C43.9296 70.7553 44.3119 68.893 45.0766 66.8703C45.8412 64.823 46.6552 63.0963 47.5186 61.6903C49.6152 58.3603 51.8229 56.2636 54.1416 55.4003C54.7829 55.1536 55.4736 55.0303 56.2136 55.0303C57.0769 55.0303 57.8046 55.2523 58.3966 55.6963C58.9886 56.1156 59.3339 56.7816 59.4326 57.6943V57.8423C59.4326 57.9163 59.4079 58.0273 59.3586 58.1753ZM76.0956 53.6613C76.2189 53.316 76.5396 53.02 77.0576 52.7733C77.5756 52.502 78.0936 52.3663 78.6116 52.3663C79.3516 52.3663 79.7216 52.6253 79.7216 53.1433C79.7216 53.2173 79.6969 53.353 79.6476 53.5503C78.5869 57.1516 77.6496 59.902 76.8356 61.8013C76.6876 62.1713 76.3422 62.492 75.7996 62.7633C75.2816 63.01 74.7636 63.1333 74.2456 63.1333C73.6289 63.1333 73.2712 62.9236 73.1726 62.5043C72.7286 60.531 72.0379 59.5443 71.1006 59.5443C70.6566 59.5443 70.1632 59.7786 69.6206 60.2473C68.4366 61.3326 67.4992 62.8003 66.8086 64.6503C66.1426 66.5003 65.8096 68.264 65.8096 69.9413C65.8096 71.1746 66.0192 72.2846 66.4386 73.2713C66.8579 74.2333 67.5609 74.8376 68.5476 75.0843C68.6956 75.1336 68.9299 75.1583 69.2506 75.1583C70.0646 75.1583 70.8662 74.8623 71.6556 74.2703C72.4696 73.6536 73.1356 73.0246 73.6536 72.3833C74.1716 71.7173 74.8376 70.817 75.6516 69.6823C75.8489 69.411 76.1572 69.2013 76.5766 69.0533C76.9959 68.8806 77.4152 68.7943 77.8346 68.7943C78.2292 68.7943 78.5376 68.8683 78.7596 69.0163C79.0062 69.1396 79.1296 69.337 79.1296 69.6083C79.1296 69.855 79.0432 70.114 78.8706 70.3853C77.5632 72.4326 75.9722 74.2086 74.0976 75.7133C72.2229 77.1933 70.2496 77.9333 68.1776 77.9333C67.7582 77.9333 67.3389 77.8963 66.9196 77.8223C65.2669 77.551 64.0336 76.7493 63.2196 75.4173C62.4056 74.0606 61.9986 72.4943 61.9986 70.7183C61.9986 70.077 62.0602 69.3863 62.1836 68.6463C62.5782 66.2783 63.3676 64.0706 64.5516 62.0233C65.7356 59.9513 67.2896 58.4343 69.2136 57.4723C70.1756 57.0036 71.1376 56.7693 72.0996 56.7693C73.0122 56.7693 73.8509 57.016 74.6156 57.5093L76.0956 53.6613ZM85.6633 60.2843C85.6633 61.2216 85.8976 62.048 86.3663 62.7633C86.8596 63.4786 87.4516 64.083 88.1423 64.5763C88.8329 65.0696 89.7703 65.6493 90.9543 66.3153C92.5576 67.228 93.7786 68.0543 94.6173 68.7943C95.4806 69.5343 96.0479 70.4593 96.3193 71.5693C96.4179 72.0626 96.4673 72.4203 96.4673 72.6423C96.4673 74.369 95.5546 75.6146 93.7293 76.3793C91.9039 77.1193 89.8319 77.4893 87.5133 77.4893C86.6006 77.4893 85.7989 77.4276 85.1083 77.3043C84.2943 77.1563 83.4433 76.8726 82.5553 76.4533C81.6919 76.0093 80.9643 75.479 80.3723 74.8623C79.8049 74.221 79.5213 73.5673 79.5213 72.9013C79.5213 71.8653 80.3229 70.9156 81.9263 70.0523C82.3703 69.8303 82.8019 69.7193 83.2213 69.7193C83.6159 69.7193 83.9366 69.8056 84.1833 69.9783C84.4546 70.151 84.5903 70.3606 84.5903 70.6073C84.5903 71.0513 84.2326 71.483 83.5173 71.9023C83.3693 71.9763 83.2953 72.0873 83.2953 72.2353C83.2953 72.5313 83.5296 72.889 83.9983 73.3083C84.4669 73.7276 84.8369 74.0113 85.1083 74.1593C85.8483 74.5786 87.0323 74.8376 88.6603 74.9363C88.8576 74.961 89.2029 74.9733 89.6963 74.9733C90.5843 74.9733 91.2996 74.8253 91.8423 74.5293C92.3849 74.2333 92.6193 73.6906 92.5453 72.9013C92.4466 71.8406 91.3736 70.6443 89.3263 69.3123L87.9203 68.4243C86.6376 67.635 85.5769 66.9443 84.7383 66.3523C83.9243 65.7356 83.2213 65.008 82.6293 64.1693C82.0373 63.306 81.7413 62.344 81.7413 61.2833C81.7413 60.6173 81.8646 59.9513 82.1113 59.2853C82.6539 57.682 83.6653 56.4486 85.1453 55.5853C86.6253 54.6973 88.2163 54.2533 89.9183 54.2533C91.6696 54.2533 93.1373 54.6973 94.3213 55.5853C95.5299 56.4733 96.1343 57.7313 96.1343 59.3593C96.1343 59.8773 96.0603 60.4323 95.9123 61.0243C95.8136 61.4683 95.4436 61.8506 94.8023 62.1713C94.1609 62.492 93.5566 62.6523 92.9893 62.6523C92.6439 62.6523 92.3726 62.5783 92.1753 62.4303C92.0026 62.2823 91.9656 62.0726 92.0643 61.8013C92.2123 61.2833 92.2863 60.7653 92.2863 60.2473C92.2863 59.4333 92.0766 58.7426 91.6573 58.1753C91.2379 57.608 90.6213 57.2133 89.8073 56.9913C89.3633 56.8926 89.0303 56.8433 88.8083 56.8433C87.9203 56.8433 87.1679 57.164 86.5513 57.8053C85.9593 58.422 85.6633 59.2483 85.6633 60.2843Z" fill="#FB973E"/>
</svg>
