<svg xmlns="http://www.w3.org/2000/svg" xmlns:xlink="http://www.w3.org/1999/xlink" xmlns:lucid="lucid" width="1026.46" height="1078.08"><g transform="translate(-557.8188766114763 168.98600368324128)" lucid:page-tab-id="0_0"><path d="M500-500h1500v1500H500z" fill="#fff"/><path d="M787.6 621.8c-.34-12.5-9.6-22.67-22.03-24.27-.68-17.44-15.37-31.05-32.9-30.5-14.22-.23-26.3 8-31.3 21.3-15.02 1.76-26.32 13.93-26.77 28.97v.32c.68 16.9 15.03 30.1 31.98 29.46h55.61c14-.16 25.2-11.37 25.42-25.3z" stroke="#000" stroke-opacity="0" fill="url(#a)"/><path d="M713.56 610.1l17.67-17.26c.8-.77 2.07-.82 2.84-.05l.04.04 17.26 17.25c.35.3.42.84.12 1.18-.2.26-.5.38-.8.34h-10.84c-.54.04-.93.43-.97.94v21.55c0 .4-.3.74-.73.74H726.5c-.42 0-.73-.34-.73-.73v-21.54c0-.5-.38-.9-.88-.94h-10.73c-.5 0-.88-.34-.92-.8 0-.3.08-.56.3-.73z" stroke="#000" stroke-opacity="0" fill="#f2f2f2"/><path d="M764.66 642.83c.04-.4-.23-.73-.6-.9l-31.77-10.57h-1.08v55.68h.87l31.5-12.53h.16c.47.07.87-.32.9-.83z" stroke="#000" stroke-opacity="0" fill="#a67af4"/><path d="M731.2 631.6l-30.14 5.54c-.45.06-.77.45-.8.9v41.46c0 .44.28.83.73.94l30.2 6.6h.2c.5 0 .88-.4.88-.9v-53.27c.07-.16.1-.33.03-.55-.08-.5-.6-.83-1.1-.72z" stroke="#000" stroke-opacity="0" fill="#552f99"/><path d="M717.32 639.9v38.77l10.5 1.65v-42.24l-10.5 1.8zM704.32 642v33.82l9.17 1.86v-37.2L704.3 642z" stroke="#000" stroke-opacity="0" fill="#b77af4" fill-opacity=".75"/><use xlink:href="#b" transform="matrix(1,0,0,1,644.6023941068722,696.0381215469615) translate(21.525000000000006 14.4)"/><use xlink:href="#c" transform="matrix(1,0,0,1,644.6023941068722,696.0381215469615) translate(122.47500000000001 14.4)"/><use xlink:href="#d" transform="matrix(1,0,0,1,644.6023941068722,696.0381215469615) translate(9.125 36)"/><use xlink:href="#e" transform="matrix(1,0,0,1,644.6023941068722,696.0381215469615) translate(85.075 36)"/><use xlink:href="#f" transform="matrix(1,0,0,1,644.6023941068722,696.0381215469615) translate(53.574999999999996 57.6)"/><path d="M676.53 264.84c-26.28 20.28-63.96 15.6-84.36-10.68-20.28-26.28-15.6-63.96 10.68-84.36l.6-.36c26.64-19.92 64.32-14.4 84.12 12.12 19.56 26.28 14.64 63.12-11.04 83.28" stroke="#000" stroke-opacity="0" fill="url(#g)"/><path d="M623.35 204.83c17.72-16.87 38.55-25.25 63.02-25.32-3.27-4-6.4-7.06-10.53-10.2-12.05.76-22.14 3.1-33.18 7.8-11.47 4.9-20.25 11-28.9 19.95 4.15 1.57 7.2 4.05 9.6 7.78zM593.62 228.96c-2.57 6.35-4.33 11.9-5.9 18.53 1.4 2.4 2.7 4.32 4.4 6.5 1.3 1.64 2.5 3.12 3.9 4.6 1.8-8.86 4.1-16.2 7.67-24.54-3.97-.7-7.18-2.3-10.08-5.1z" stroke="#000" stroke-opacity="0" fill="#fff" fill-opacity=".6"/><path d="M600.46 196.87c-2.62-7.08-4.08-13.34-4.85-20.83-3.12 3.3-5.43 6.38-7.74 10.28.83 6.02 2.04 11.07 4 16.84 2.33-3 5.03-5 8.6-6.3z" stroke="#000" stroke-opacity="0" fill="#f2f2f2" fill-opacity=".55"/><path d="M626.37 215.04c0 10.67-8.66 19.32-19.32 19.32-10.67 0-19.32-8.65-19.32-19.32 0-10.66 8.65-19.32 19.32-19.32 10.66 0 19.32 8.66 19.32 19.32z" stroke="#000" stroke-opacity="0" fill="url(#h)"/><path d="M635.16 250.4c0-3.55 1.28-6.55 3.8-9-6.87-3.77-12.25-7.72-17.88-13.16-2.93 3.16-6.3 5.04-10.55 5.87 3.36 3.46 6.43 6.14 10.27 9.06 4.77 3.62 9.1 6.25 14.5 8.84-.08-.57-.14-1.04-.14-1.6zM679.75 251.86c-6.92 0-12.8-.67-19.52-2.26.03.28.03.5 0 .78 0 3.42-1.2 6.35-3.62 8.76 8.4 1.67 15.68 2.18 24.23 1.7 3.3-2.98 5.84-5.83 8.42-9.47-3.33.37-6.14.52-9.5.5z" stroke="#000" stroke-opacity="0" fill="#f2f2f2" fill-opacity=".55"/><path d="M660.33 250.32c0 6.96-5.65 12.6-12.6 12.6-6.96 0-12.6-5.64-12.6-12.6 0-6.95 5.64-12.6 12.6-12.6 6.95 0 12.6 5.65 12.6 12.6z" stroke="#000" stroke-opacity="0" fill="url(#i)"/><path d="M663.2 216.84c.64-2.9 2.03-5.18 4.33-7.06-12.28-8.95-21.74-17.73-31.56-29.3-5.7-6.67-9.93-12.88-14.15-20.64-2.78.86-5.08 1.7-7.7 2.97 4.5 8.44 9.03 15.17 15.23 22.52 10.46 12.5 20.66 21.95 33.85 31.52z" stroke="#000" stroke-opacity="0" fill="#f2f2f2" fill-opacity=".7"/><path d="M689.73 219.3c0 7.4-6 13.38-13.38 13.38-7.4 0-13.38-6-13.38-13.38 0-7.38 6-13.38 13.38-13.38 7.38 0 13.38 6 13.38 13.38z" stroke="#000" stroke-opacity="0" fill="url(#j)"/><path d="M698.73 228.2l-2.47-1.2-2.12-1.13h-.42l-1.83-1.5h-.5l-2.2-1.4c-.8 2.72-2.24 4.8-4.5 6.5.83.57 1.76 1.08 2.67 1.57l.56.35 2.47 1.34 6.07 3.18c.9-2.7 1.5-5.05 2.05-7.86z" stroke="#000" stroke-opacity="0" fill="#f2f2f2" fill-opacity=".55"/><path d="M626.37 215.04c0 10.67-8.66 19.32-19.32 19.32-10.67 0-19.32-8.65-19.32-19.32 0-10.66 8.65-19.32 19.32-19.32 10.66 0 19.32 8.66 19.32 19.32z" stroke="#000" stroke-opacity="0" fill="url(#k)"/><path d="M660.33 250.32c0 6.96-5.65 12.6-12.6 12.6-6.96 0-12.6-5.64-12.6-12.6 0-6.95 5.64-12.6 12.6-12.6 6.95 0 12.6 5.65 12.6 12.6z" stroke="#000" stroke-opacity="0" fill="url(#l)"/><use xlink:href="#m" transform="matrix(1,0,0,1,549.5688766114763,286.44419889506656) translate(29.25 14.4)"/><use xlink:href="#n" transform="matrix(1,0,0,1,549.5688766114763,286.44419889506656) translate(56.25 14.4)"/><use xlink:href="#o" transform="matrix(1,0,0,1,549.5688766114763,286.44419889506656) translate(97.85 14.4)"/><path d="M1041.58 621.8c-.34-12.5-9.6-22.67-22.04-24.27-.67-17.44-15.36-31.05-32.88-30.5-14.24-.23-26.33 8-31.3 21.3-15.03 1.76-26.33 13.93-26.78 28.97v.32c.68 16.9 15.03 30.1 31.98 29.46h55.59c14.02-.16 25.2-11.37 25.43-25.3z" stroke="#000" stroke-opacity="0" fill="url(#p)"/><path d="M967.53 610.1l17.68-17.26c.8-.77 2.08-.82 2.85-.05l.04.04 17.24 17.25c.34.3.42.84.1 1.18-.18.26-.5.38-.8.34h-10.83c-.53.04-.9.43-.95.94v21.55c0 .4-.3.74-.73.74h-11.64c-.42 0-.73-.34-.73-.73v-21.54c0-.5-.38-.9-.88-.94h-10.72c-.5 0-.9-.34-.92-.8 0-.3.07-.56.3-.73z" stroke="#000" stroke-opacity="0" fill="#f2f2f2"/><path d="M1018.64 642.83c.03-.4-.23-.73-.6-.9l-31.78-10.57h-1.07v55.68h.86l31.5-12.53h.18c.47.07.87-.32.9-.83z" stroke="#000" stroke-opacity="0" fill="#a67af4"/><path d="M985.17 631.6l-30.14 5.54c-.45.06-.77.45-.8.9v41.46c0 .44.3.83.74.94l30.2 6.6h.22c.47 0 .86-.4.86-.9v-53.27c.06-.16.1-.33.03-.55-.1-.5-.62-.83-1.13-.72z" stroke="#000" stroke-opacity="0" fill="#552f99"/><path d="M971.3 639.9v38.77l10.5 1.65v-42.24l-10.5 1.8zM958.3 642v33.82l9.16 1.86v-37.2L958.3 642z" stroke="#000" stroke-opacity="0" fill="#b77af4" fill-opacity=".75"/><use xlink:href="#q" transform="matrix(1,0,0,1,898.5793738489677,696.0381215469615) translate(20.474999999999994 14.4)"/><use xlink:href="#r" transform="matrix(1,0,0,1,898.5793738489677,696.0381215469615) translate(81.625 14.4)"/><use xlink:href="#s" transform="matrix(1,0,0,1,898.5793738489677,696.0381215469615) translate(11.674999999999997 36)"/><use xlink:href="#f" transform="matrix(1,0,0,1,898.5793738489677,696.0381215469615) translate(95.475 36)"/><path d="M1489.35 751.2c-25.1 0-45.5-7.05-45.5-16.38v87.3c0 8.9 20.02 16.27 44.87 16.38h.63c25.12 0 45.5-7.05 45.5-16.38v-87.3c0 9.12-20.38 16.38-45.5 16.38z" stroke="#000" stroke-opacity="0" fill="url(#t)"/><path d="M1534.85 734.88c0 9.1-20.38 16.38-45.5 16.38-25.1 0-45.5-7.08-45.5-16.38 0-9.3 20.4-16.38 45.5-16.38 25.12 0 45.5 7.07 45.5 16.38" stroke="#000" stroke-opacity="0" fill="#e8e8e8"/><path d="M1524.3 733.55c0 5.8-15.73 10.48-34.95 10.48-19.22 0-34.94-4.67-34.94-10.48 0-5.8 15.73-10.4 34.95-10.4 19.22 0 34.95 4.68 34.95 10.4" stroke="#000" stroke-opacity="0" fill="#50e6ff"/><path d="M1489.4 736.18c-9.83-.24-18.23.98-27.62 4.03 9.4 3 17.8 4.17 27.62 3.83 9.9.28 18.28-.96 27.62-4.1-9.4-2.9-17.8-4.05-27.62-3.75z" stroke="#000" stroke-opacity="0" fill="#198ab3"/><path d="M1517.04 795.45v-24.02h-6.4v29.16h17.48v-5.15zm-50.66-11.8c-1.38-.54-2.48-1.2-3.64-2.2-.6-.6-.95-1.37-.88-2.26-.07-.9.37-1.64 1.1-2.12.94-.63 1.9-.88 2.98-.85 2.63-.07 4.96.56 7.07 2.03v-6.06c-2.32-.85-4.5-1.22-7.06-1.1-2.9-.2-5.4.62-7.72 2.36-2.04 1.55-3.06 3.77-3 6.32 0 3.6 2.27 6.4 7.08 8.54 1.67.7 3 1.44 4.44 2.55.66.55 1.03 1.33 1.03 2.25 0 .9-.37 1.67-1.1 2.18-1.02.63-2.04.9-3.2.78-3-.04-5.55-1-7.73-2.96v6.54c2.48 1.3 4.8 1.82 7.58 1.7 3.13.2 5.83-.55 8.38-2.32 1.82-1.7 2.63-3.96 2.33-6.43.08-1.88-.5-3.5-1.74-4.9-1.76-1.86-3.6-3.08-5.92-4.04zm37.17 11.25c1.68-2.85 2.4-5.66 2.34-8.9-.16-2.78-.9-5.1-2.35-7.5-1.16-2.3-2.7-4-4.95-5.3-2.26-1.3-4.52-1.85-7.07-1.85-2.85-.07-5.25.56-7.73 1.92-2.26 1.26-3.86 2.93-5.17 5.22-1.32 2.6-1.9 5.12-1.83 8.04 0 2.6.5 4.77 1.68 7.06 1.17 2.3 2.7 3.96 4.96 5.25 2.18 1.33 4.44 2 7.07 2.1l6.13 7.07h8.6l-8.75-7.76c3.07-.93 5.4-2.7 7.08-5.36zm-7.07-1.78c-1.38 1.67-3.28 2.52-5.4 2.48-2.18.07-4.07-.85-5.38-2.55-1.6-2.14-2.26-4.44-2.04-7.06-.22-2.63.43-4.96 2.04-7.07 1.38-1.74 3.28-2.62 5.54-2.62 2.18-.1 4.08.86 5.32 2.63 1.46 2.18 2.04 4.44 1.9 7.06.28 2.6-.37 4.98-1.98 7.12z" stroke="#000" stroke-opacity="0" fill="url(#u)"/><use xlink:href="#v" transform="matrix(1,0,0,1,1413.8534069981586,847.4977900552983) translate(23.875 14.4)"/><use xlink:href="#w" transform="matrix(1,0,0,1,1413.8534069981586,847.4977900552983) translate(64.225 14.4)"/><use xlink:href="#x" transform="matrix(1,0,0,1,1413.8534069981586,847.4977900552983) translate(122.125 14.4)"/><use xlink:href="#y" transform="matrix(1,0,0,1,1413.8534069981586,847.4977900552983) translate(31.525 36)"/><use xlink:href="#z" transform="matrix(1,0,0,1,1413.8534069981586,847.4977900552983) translate(83.475 36)"/><path d="M1436.07-85.53l52.8 34.54 53.76-34.68 6.72 7.93-60.48 39.26-59.52-39.25 6.72-7.78z" stroke="#000" stroke-opacity="0" fill="#50e6ff"/><path d="M1440.08-89.97l48.83-58.52 49.82 58.63-49.8 31.7-48.84-31.8z" stroke="#000" stroke-opacity="0" fill="#fff"/><path d="M1488.92-148.5v90.32l-48.84-31.8 48.84-58.5z" stroke="#000" stroke-opacity="0" fill="#50e6ff"/><path d="M1488.87-148.5v90.32l49.8-31.7-49.8-58.6z" stroke="#000" stroke-opacity="0" fill="url(#A)"/><path d="M1488.87-101.85l49.8 11.97-49.8 31.7v-43.67z" stroke="#000" stroke-opacity="0" fill="#53b1e0"/><path d="M1488.92-58.18l-48.84-31.8 48.84-11.87v43.67z" stroke="#000" stroke-opacity="0" fill="#9cebff"/><path d="M1488.87-38.5l60.48-39.25-6.7-7.93-53.78 34.7v12.5z" stroke="#000" stroke-opacity="0" fill="url(#B)"/><path d="M1440.13-89.97l-4.05 4.44 52.86 34.5 53.7-34.65-3.94-4.2-49.76 31.7z" stroke="#000" stroke-opacity="0" fill-opacity="0"/><use xlink:href="#C" transform="matrix(1,0,0,1,1399.3534069981586,-29.48600368324128) translate(18.125 14.4)"/><use xlink:href="#D" transform="matrix(1,0,0,1,1399.3534069981586,-29.48600368324128) translate(95.975 14.4)"/><use xlink:href="#E" transform="matrix(1,0,0,1,1399.3534069981586,-29.48600368324128) translate(143.925 14.4)"/><path d="M1429.35 476.92h120v67.23c0 2.28-1.8 4.07-4.08 4.07h-111.84c-2.28 0-4.08-1.8-4.08-4.07v-67.23z" stroke="#000" stroke-opacity="0" fill="url(#F)"/><path d="M1433.43 451.22h111.84c2.28 0 4.08 1.8 4.08 4.03v21.67h-120V455.2c0-2.2 1.8-3.98 4.08-3.98z" stroke="#000" stroke-opacity="0" fill="#37c2b1"/><path d="M1445.7 484.68h87.3c1.02.04 1.83.88 1.83 1.92v9.94c0 1.03-.8 1.87-1.82 1.9h-87.3c-1-.03-1.83-.87-1.83-1.9v-9.94c0-1.04.82-1.88 1.82-1.92z" stroke="#000" stroke-opacity="0" fill="#fff"/><path d="M1445.8 504.47h87.33c1 .04 1.82.9 1.82 1.9v10.06c0 1.02-.82 1.87-1.82 1.9h-87.34c-1.1-.03-1.93-.88-1.93-1.9v-9.7c-.18-1.03.55-2.03 1.55-2.23.1-.02.18-.03.37-.03z" stroke="#000" stroke-opacity="0" fill="#37c2b1"/><path d="M1445.7 524.55h87.3c1.02.04 1.83.9 1.83 1.9v10.05c0 1.03-.8 1.88-1.82 1.92h-87.3c-1-.04-1.83-.9-1.83-1.9v-10.06c0-1.02.82-1.87 1.82-1.9z" stroke="#000" stroke-opacity="0" fill="#258277"/><use xlink:href="#G" transform="matrix(1,0,0,1,1399.3534069981586,557.2160220995015) translate(32.55 14.4)"/><use xlink:href="#H" transform="matrix(1,0,0,1,1399.3534069981586,557.2160220995015) translate(84.5 14.4)"/><use xlink:href="#I" transform="matrix(1,0,0,1,1399.3534069981586,557.2160220995015) translate(53 36)"/><path d="M1515.4 211.4v-4.26h-31.85l-14.97 14.95h-11.02l25.5-25.9h17.43v-4h-19.2l-29.73 29.9h-4.22v4.2h12.8l15.03 14.9h36v-4.22h-34.43l-10.62-10.68H1492v-4.2h-17.36l10.54-10.7z" stroke="#000" stroke-opacity="0" fill="#32bedd"/><path d="M1502.3 224.24c0 3.4-2.73 6.15-6.1 6.15-3.38 0-6.13-2.77-6.13-6.16 0-3.4 2.75-6.15 6.12-6.15s6.1 2.74 6.1 6.14zM1508.8 194.4c0 3.38-2.75 6.14-6.13 6.14s-6.12-2.76-6.12-6.15c0-3.4 2.75-6.17 6.12-6.17 3.38 0 6.12 2.76 6.12 6.16zM1523.67 209.37c0 3.4-2.74 6.15-6.12 6.15s-6.12-2.76-6.12-6.15c0-3.4 2.74-6.16 6.12-6.16s6.12 2.77 6.12 6.17zM1517.3 239.1c0 3.4-2.73 6.16-6.1 6.16-3.38 0-6.13-2.75-6.13-6.15 0-3.38 2.75-6.14 6.12-6.14s6.1 2.76 6.1 6.15z" stroke="#000" stroke-opacity="0" fill="#fff"/><path d="M1509.87 194.5c0 4.1-3.3 7.43-7.38 7.43s-7.4-3.33-7.4-7.44c0-4.1 3.32-7.44 7.4-7.44 4.07 0 7.37 3.33 7.37 7.43z" stroke="#000" stroke-opacity="0" fill="#50e6ff"/><path d="M1524.75 209.37c0 4.1-3.3 7.43-7.38 7.43-4.07 0-7.38-3.33-7.38-7.43s3.3-7.44 7.37-7.44c4.08 0 7.38 3.33 7.38 7.44z" stroke="#000" stroke-opacity="0" fill="url(#J)"/><path d="M1518.5 239.1c0 4.12-3.3 7.45-7.37 7.45s-7.38-3.33-7.38-7.44c0-4.1 3.3-7.42 7.38-7.42s7.38 3.33 7.38 7.43z" stroke="#000" stroke-opacity="0" fill="url(#K)"/><path d="M1503.63 224.24c0 4.1-3.3 7.44-7.38 7.44-4.07 0-7.38-3.34-7.38-7.44 0-4.1 3.3-7.44 7.38-7.44s7.38 3.33 7.38 7.44z" stroke="#000" stroke-opacity="0" fill="#50e6ff"/><path d="M1433.4 164h9.1v25.24c0 1.12-.92 2.05-2.05 2.05h-9c-1.12 0-2.04-.94-2.04-2.06v-21.2c0-2.23 1.8-4.04 4-4.04z" stroke="#000" stroke-opacity="0" fill="#999"/><path d="M1433.4 164h9.1v25.24c0 1.12-.92 2.05-2.05 2.05h-9c-1.12 0-2.04-.94-2.04-2.06v-21.2c0-2.23 1.8-4.04 4-4.04z" stroke="#000" stroke-opacity="0" fill="#999" fill-opacity=".5"/><path d="M1536.15 164h9.08c2.2 0 4 1.8 4 4.04v21.2c0 1.12-.9 2.05-2.04 2.05h-9.07c-1.1-.04-1.98-.97-1.98-2.06V164z" stroke="#000" stroke-opacity="0" fill="#999"/><path d="M1536.15 164h9.08c2.2 0 4 1.8 4 4.04v21.2c0 1.12-.9 2.05-2.04 2.05h-9.07c-1.1-.04-1.98-.97-1.98-2.06V164z" stroke="#000" stroke-opacity="0" fill="#999" fill-opacity=".5"/><path d="M1549.3 168.02v8.82h-119.9v-8.82c0-2.22 1.8-4.02 4.1-4.02h111.83c2.16.04 3.96 1.83 3.96 4.02z" stroke="#000" stroke-opacity="0" stroke-width="0" fill="#949494"/><path d="M1431.46 243.44h9.1c1.13 0 2.04.9 2.04 2.07v25.44h-9.17c-2.22 0-4.02-1.8-4.02-4.04v-21.2c-.1-1.13.7-2.12 1.83-2.25h.23z" stroke="#000" stroke-opacity="0" fill="#999"/><path d="M1431.46 243.44h9.1c1.13 0 2.04.9 2.04 2.07v25.44h-9.17c-2.22 0-4.02-1.8-4.02-4.04v-21.2c-.1-1.13.7-2.12 1.83-2.25h.23z" stroke="#000" stroke-opacity="0" fill="#999" fill-opacity=".5"/><path d="M1538.13 243.44h9.06c1.12 0 2.03.93 2.03 2.05v21.2c0 2.23-1.8 4.03-4 4.03h-9.06V245.7c-.12-1.1.7-2.12 1.8-2.25h.16z" stroke="#000" stroke-opacity="0" fill="#999"/><path d="M1538.13 243.44h9.06c1.12 0 2.03.93 2.03 2.05v21.2c0 2.23-1.8 4.03-4 4.03h-9.06V245.7c-.12-1.1.7-2.12 1.8-2.25h.16z" stroke="#000" stroke-opacity="0" fill="#999" fill-opacity=".5"/><path d="M1429.4 266.82V258h119.9v8.82c0 2.22-1.8 4.02-4.1 4.02h-111.7c-2.3 0-4.1-1.8-4.1-4.02z" stroke="#000" stroke-opacity="0" stroke-width="0" fill="#949494"/><path d="M1433.55 163.94h111.6c2.76 0 4.2 1.4 4.2 4.18v98.65c0 2.78-1.44 4.17-4.2 4.17h-111.6c-2.76 0-4.2-1.4-4.2-4.17v-98.65c0-2.78 1.44-4.18 4.2-4.18z" stroke="#000" stroke-opacity="0" fill-opacity="0"/><use xlink:href="#G" transform="matrix(1,0,0,1,1399.3534069981586,279.94419889506656) translate(16.07499999999999 14.4)"/><use xlink:href="#L" transform="matrix(1,0,0,1,1399.3534069981586,279.94419889506656) translate(68.02499999999999 14.4)"/><use xlink:href="#M" transform="matrix(1,0,0,1,1399.3534069981586,279.94419889506656) translate(132.925 14.4)"/><path d="M639.57-44.5v185.6M639.57-44.47V-45" stroke="#3a414a" fill="none"/><path d="M639.57 155.86l-4.64-14.27h9.27z" stroke="#3a414a" fill="#3a414a"/><path d="M1060.63-93H700.07v-1h360.56zm366 0h-200.52v-1h200.54z" stroke="#3a414a" stroke-width=".05" fill="#3a414a"/><path d="M700.08-93h-.5v-1h.5z" stroke="#3a414a" stroke-width=".05" fill="#3a414a"/><path d="M1441.4-93.5l-14.27 4.65v-9.27z" fill="#3a414a"/><path d="M1443.02-93.5l-16.38 5.34V-98.8zm-15.38 3.96l12.14-3.95-12.14-3.93z" stroke="#3a414a" stroke-width=".05" fill="#3a414a"/><use xlink:href="#N" transform="matrix(1,0,0,1,1060.6312666257418,-104.15267034990795) translate(0 14.222222222222223)"/><use xlink:href="#O" transform="matrix(1,0,0,1,1060.6312666257418,-104.15267034990795) translate(44.39506172839507 14.222222222222223)"/><path d="M700 217.44h712.97" stroke="#3a414a" fill="none"/><path d="M700.03 217.94h-.5l-.02-1h.53z" stroke="#3a414a" stroke-width=".05" fill="#3a414a"/><path d="M1427.73 217.44l-14.26 4.64v-9.27z" stroke="#3a414a" fill="#3a414a"/><path d="M639.57 277.93V772.5a6 6 0 0 0 6 6h781.9" stroke="#3a414a" fill="none"/><path d="M640 277.44h.07v.5h-1v-.53z" stroke="#3a414a" stroke-width=".05" fill="#3a414a"/><path d="M1442.23 778.5l-14.26 4.63v-9.27z" stroke="#3a414a" fill="#3a414a"/><path d="M985.08 560.26V264.78a6 6 0 0 1 6-6h421.9" stroke="#3a414a" fill="none"/><path d="M985.08 566.15l-7.64-12.9h15.27zM1427.73 258.78l-14.26 4.64v-9.27z" stroke="#3a414a" fill="#3a414a"/><path d="M731.1 550.75V181.63a6 6 0 0 1 6-6h675.87" stroke="#3a414a" fill="none"/><path d="M731.1 565.52l-4.63-14.27h9.27zM1427.73 175.63l-14.26 4.63V171z" stroke="#3a414a" fill="#3a414a"/><path d="M731.1 566.64v-60.92a6 6 0 0 1 6-6h675.87" stroke="#3a414a" fill="none"/><path d="M731.6 567.1l-1 .07v-.55h1z" stroke="#3a414a" stroke-width=".05" fill="#3a414a"/><path d="M1427.73 499.72l-14.26 4.63v-9.27z" stroke="#3a414a" fill="#3a414a"/><path d="M1041.38 627.04h187.74a6 6 0 0 0 6-6V538a6 6 0 0 1 6-6h171.85" stroke="#3a414a" fill="none"/><path d="M1041.4 627.54h-.67l.3-1h.36z" stroke="#3a414a" stroke-width=".05" fill="#3a414a"/><path d="M1427.73 532l-14.26 4.64v-9.27z" stroke="#3a414a" fill="#3a414a"/><path d="M731.1 687.52v56.76a6 6 0 0 0 6 6h690.37" stroke="#3a414a" fill="none"/><path d="M731.2 687.04h.4v.5h-1v-.63z" stroke="#3a414a" stroke-width=".05" fill="#3a414a"/><path d="M1442.23 750.3l-14.26 4.62v-9.27z" stroke="#3a414a" fill="#3a414a"/><path d="M1019.14 670.1h464.2a6 6 0 0 1 6 6v26" stroke="#3a414a" fill="none"/><path d="M1019.15 670.6h-.5v-1h.5z" stroke="#3a414a" stroke-width=".05" fill="#3a414a"/><path d="M1489.35 716.88l-4.63-14.27h9.27z" stroke="#3a414a" fill="#3a414a"/><path d="M579.57-116.28h120v67.23c0 2.28-1.8 4.06-4.08 4.06H583.64c-2.28 0-4.08-1.77-4.08-4.05v-67.23z" stroke="#000" stroke-opacity="0" fill="url(#P)"/><path d="M583.65-142H695.5c2.27 0 4.07 1.8 4.07 4.05v21.67h-120V-138c0-2.2 1.8-4 4.08-4z" stroke="#000" stroke-opacity="0" fill="#005ba1"/><path d="M597.8-134.32h83.67c1.32 0 2.02.66 2.02 2v6.38c0 1.33-.7 2-2.03 2H597.8c-1.33 0-2.03-.67-2.03-2v-6.4c0-1.32.7-1.98 2.02-1.98z" stroke="#000" stroke-opacity="0" fill="#f2f2f2"/><path d="M623.25-93.5l-6.37 21.26h-5.1l-3.86-14.17c-.1-.65-.1-1.3 0-1.92.06.6.06 1.23 0 1.84l-5.04 14.24h-5l-6.3-21.25h5L600-79.92l.15.7.23.8.1.45c.05.62.05 1.23 0 1.85-.07-.62-.07-1.23 0-1.85l.18-.53.22-.7.23-.7 4.47-13.6h4.6l3.26 13.06.28 1.2.27.92.1.4c.02.62.02 1.24 0 1.85-.07-.6-.07-1.23 0-1.85.02-.12.05-.25.1-.38l.27-.93.35-1.25 3.63-13zM655.77-93.5l-6.37 21.26h-5.1l-3.86-14.17c-.1-.65-.1-1.3 0-1.92-.23.65-.48 1.3-.8 1.9l-4.24 14.18h-4.94L624.1-93.5h5l3.95 15.52c.07.62.07 1.23 0 1.85 0-.57 0-1.2.38-1.85l4.73-15.5h4.52l3.74 15 .16.56c.03.62.03 1.24 0 1.85-.06-.6-.06-1.23 0-1.85l.1-.38 4.5-15.2zM688.17-93.5l-6.27 21.26h-5.1l-4.03-14.17c-.03-.67-.03-1.24 0-1.92-.03.65-.12 1.2-.35 1.84l-4.65 14.24h-4.94L656.5-93.5h5.06l3.9 15.52c.06.64.06 1.2 0 1.85-.07-.66-.07-1.2 0-1.85l5.06-15.5h4.3l3.8 15.56c.08.66.08 1.22 0 1.85-.02-.63-.02-1.2 0-1.85l4.9-15.57z" stroke="#000" stroke-opacity="0" fill="#fff"/><g><use xlink:href="#Q" transform="matrix(1,0,0,1,549.5688766114763,-35.98600368324128) translate(54.05 14.4)"/></g><defs><linearGradient gradientUnits="userSpaceOnUse" id="a" x1="731.2" y1="686.5" x2="731.2" y2="567.06"><stop offset="0%" stop-color="#0078d4"/><stop offset="16%" stop-color="#1380da"/><stop offset="53%" stop-color="#3c91e5"/><stop offset="82%" stop-color="#559cec"/><stop offset="100%" stop-color="#5ea0ef"/></linearGradient><path d="M160-131c35 5 61 23 61 61C221 17 115-2 30 0v-248c76 3 177-17 177 60 0 33-19 50-47 57zm-97-11c50-1 110 9 110-42 0-47-63-36-110-37v79zm0 115c55-2 124 14 124-45 0-56-70-42-124-44v89" id="R"/><path d="M141-36C126-15 110 5 73 4 37 3 15-17 15-53c-1-64 63-63 125-63 3-35-9-54-41-54-24 1-41 7-42 31l-33-3c5-37 33-52 76-52 45 0 72 20 72 64v82c-1 20 7 32 28 27v20c-31 9-61-2-59-35zM48-53c0 20 12 33 32 33 41-3 63-29 60-74-43 2-92-5-92 41" id="S"/><path d="M96-169c-40 0-48 33-48 73s9 75 48 75c24 0 41-14 43-38l32 2c-6 37-31 61-74 61-59 0-76-41-82-99-10-93 101-131 147-64 4 7 5 14 7 22l-32 3c-4-21-16-35-41-35" id="T"/><path d="M143 0L79-87 56-68V0H24v-261h32v163l83-92h37l-77 82L181 0h-38" id="U"/><path d="M177-190C167-65 218 103 67 71c-23-6-38-20-44-43l32-5c15 47 100 32 89-28v-30C133-14 115 1 83 1 29 1 15-40 15-95c0-56 16-97 71-98 29-1 48 16 59 35 1-10 0-23 2-32h30zM94-22c36 0 50-32 50-73 0-42-14-75-50-75-39 0-46 34-46 75s6 73 46 73" id="V"/><path d="M114-163C36-179 61-72 57 0H25l-1-190h30c1 12-1 29 2 39 6-27 23-49 58-41v29" id="W"/><path d="M100-194c62-1 85 37 85 99 1 63-27 99-86 99S16-35 15-95c0-66 28-99 85-99zM99-20c44 1 53-31 53-75 0-43-8-75-51-75s-53 32-53 75 10 74 51 75" id="X"/><path d="M84 4C-5 8 30-112 23-190h32v120c0 31 7 50 39 49 72-2 45-101 50-169h31l1 190h-30c-1-10 1-25-2-33-11 22-28 36-60 37" id="Y"/><path d="M117-194c89-4 53 116 60 194h-32v-121c0-31-8-49-39-48C34-167 62-67 57 0H25l-1-190h30c1 10-1 24 2 32 11-22 29-35 61-36" id="Z"/><path d="M85-194c31 0 48 13 60 33l-1-100h32l1 261h-30c-2-10 0-23-3-31C134-8 116 4 85 4 32 4 16-35 15-94c0-66 23-100 70-100zm9 24c-40 0-46 34-46 75 0 40 6 74 45 74 42 0 51-32 51-76 0-42-9-74-50-73" id="aa"/><g id="b"><use transform="matrix(0.05,0,0,0.05,0,0)" xlink:href="#R"/><use transform="matrix(0.05,0,0,0.05,12,0)" xlink:href="#S"/><use transform="matrix(0.05,0,0,0.05,22,0)" xlink:href="#T"/><use transform="matrix(0.05,0,0,0.05,31,0)" xlink:href="#U"/><use transform="matrix(0.05,0,0,0.05,40,0)" xlink:href="#V"/><use transform="matrix(0.05,0,0,0.05,50,0)" xlink:href="#W"/><use transform="matrix(0.05,0,0,0.05,55.95,0)" xlink:href="#X"/><use transform="matrix(0.05,0,0,0.05,65.95,0)" xlink:href="#Y"/><use transform="matrix(0.05,0,0,0.05,75.95,0)" xlink:href="#Z"/><use transform="matrix(0.05,0,0,0.05,85.95,0)" xlink:href="#aa"/></g><path d="M153-248C145-148 188 4 80 4 36 3 13-21 6-62l32-5c4 25 16 42 43 43 27 0 39-20 39-49v-147H72v-28h81" id="ab"/><path d="M115-194c53 0 69 39 70 98 0 66-23 100-70 100C84 3 66-7 56-30L54 0H23l1-261h32v101c10-23 28-34 59-34zm-8 174c40 0 45-34 45-75 0-40-5-75-45-74-42 0-51 32-51 76 0 43 10 73 51 73" id="ac"/><g id="c"><use transform="matrix(0.05,0,0,0.05,0,0)" xlink:href="#ab"/><use transform="matrix(0.05,0,0,0.05,9,0)" xlink:href="#X"/><use transform="matrix(0.05,0,0,0.05,19,0)" xlink:href="#ac"/></g><path d="M30 0v-248h187v28H63v79h144v27H63v87h162V0H30" id="ad"/><path d="M141 0L90-78 38 0H4l68-98-65-92h35l48 74 47-74h35l-64 92 68 98h-35" id="ae"/><path d="M100-194c63 0 86 42 84 106H49c0 40 14 67 53 68 26 1 43-12 49-29l28 8c-11 28-37 45-77 45C44 4 14-33 15-96c1-61 26-98 85-98zm52 81c6-60-76-77-97-28-3 7-6 17-6 28h103" id="af"/><path d="M59-47c-2 24 18 29 38 22v24C64 9 27 4 27-40v-127H5v-23h24l9-43h21v43h35v23H59v120" id="ag"/><g id="d"><use transform="matrix(0.05,0,0,0.05,0,0)" xlink:href="#ad"/><use transform="matrix(0.05,0,0,0.05,12,0)" xlink:href="#ae"/><use transform="matrix(0.05,0,0,0.05,21,0)" xlink:href="#af"/><use transform="matrix(0.05,0,0,0.05,31,0)" xlink:href="#T"/><use transform="matrix(0.05,0,0,0.05,40,0)" xlink:href="#Y"/><use transform="matrix(0.05,0,0,0.05,50,0)" xlink:href="#ag"/><use transform="matrix(0.05,0,0,0.05,55,0)" xlink:href="#af"/><use transform="matrix(0.05,0,0,0.05,65,0)" xlink:href="#W"/></g><path d="M87 75C49 33 22-17 22-94c0-76 28-126 65-167h31c-38 41-64 92-64 168S80 34 118 75H87" id="ah"/><path d="M266 0h-40l-56-210L115 0H75L2-248h35L96-30l15-64 43-154h32l59 218 59-218h35" id="ai"/><path d="M24-231v-30h32v30H24zM24 0v-190h32V0H24" id="aj"/><path d="M206 0h-36l-40-164L89 0H53L-1-190h32L70-26l43-164h34l41 164 42-164h31" id="ak"/><path d="M135-143c-3-34-86-38-87 0 15 53 115 12 119 90S17 21 10-45l28-5c4 36 97 45 98 0-10-56-113-15-118-90-4-57 82-63 122-42 12 7 21 19 24 35" id="al"/><g id="e"><use transform="matrix(0.05,0,0,0.05,0,0)" xlink:href="#ah"/><use transform="matrix(0.05,0,0,0.05,5.95,0)" xlink:href="#ai"/><use transform="matrix(0.05,0,0,0.05,22.9,0)" xlink:href="#aj"/><use transform="matrix(0.05,0,0,0.05,26.849999999999994,0)" xlink:href="#Z"/><use transform="matrix(0.05,0,0,0.05,36.849999999999994,0)" xlink:href="#aa"/><use transform="matrix(0.05,0,0,0.05,46.849999999999994,0)" xlink:href="#X"/><use transform="matrix(0.05,0,0,0.05,56.849999999999994,0)" xlink:href="#ak"/><use transform="matrix(0.05,0,0,0.05,69.8,0)" xlink:href="#al"/></g><path d="M185-189c-5-48-123-54-124 2 14 75 158 14 163 119 3 78-121 87-175 55-17-10-28-26-33-46l33-7c5 56 141 63 141-1 0-78-155-14-162-118-5-82 145-84 179-34 5 7 8 16 11 25" id="am"/><path d="M108 0H70L1-190h34L89-25l56-165h34" id="an"/><path d="M33-261c38 41 65 92 65 168S71 34 33 75H2C39 34 66-17 66-93S39-220 2-261h31" id="ao"/><g id="f"><use transform="matrix(0.05,0,0,0.05,0,0)" xlink:href="#am"/><use transform="matrix(0.05,0,0,0.05,12,0)" xlink:href="#af"/><use transform="matrix(0.05,0,0,0.05,22,0)" xlink:href="#W"/><use transform="matrix(0.05,0,0,0.05,27.950000000000003,0)" xlink:href="#an"/><use transform="matrix(0.05,0,0,0.05,36.95,0)" xlink:href="#aj"/><use transform="matrix(0.05,0,0,0.05,40.900000000000006,0)" xlink:href="#T"/><use transform="matrix(0.05,0,0,0.05,49.900000000000006,0)" xlink:href="#af"/><use transform="matrix(0.05,0,0,0.05,59.900000000000006,0)" xlink:href="#ao"/></g><radialGradient gradientUnits="userSpaceOnUse" id="g" fx="639.63" fy="217.31" cx="639.63" cy="217.31" r="60.1"><stop offset="18%" stop-color="#5ea0ef" stop-opacity=".7"/><stop offset="100%" stop-color="#0078d4" stop-opacity=".7"/></radialGradient><linearGradient gradientUnits="userSpaceOnUse" id="h" x1="640.01" y1="278.98" x2="639.35" y2="192.17"><stop offset="0%" stop-color="#ccc" stop-opacity=".7"/><stop offset="100%" stop-color="#fcfcfc" stop-opacity=".7"/></linearGradient><linearGradient gradientUnits="userSpaceOnUse" id="i" x1="639.57" y1="277.44" x2="639.57" y2="157.78"><stop offset="0%" stop-color="#ccc" stop-opacity=".7"/><stop offset="100%" stop-color="#fcfcfc" stop-opacity=".7"/></linearGradient><linearGradient gradientUnits="userSpaceOnUse" id="j" x1="639.57" y1="277.13" x2="639.57" y2="157.44"><stop offset="0%" stop-color="#ccc" stop-opacity=".7"/><stop offset="100%" stop-color="#fcfcfc" stop-opacity=".7"/></linearGradient><linearGradient gradientUnits="userSpaceOnUse" id="k" x1="640.01" y1="278.98" x2="639.35" y2="192.17"><stop offset="0%" stop-color="#ccc" stop-opacity=".7"/><stop offset="100%" stop-color="#fcfcfc" stop-opacity=".7"/></linearGradient><linearGradient gradientUnits="userSpaceOnUse" id="l" x1="639.57" y1="277.44" x2="639.57" y2="157.78"><stop offset="0%" stop-color="#ccc" stop-opacity=".7"/><stop offset="100%" stop-color="#fcfcfc" stop-opacity=".7"/></linearGradient><path d="M33 0v-248h34V0H33" id="ap"/><g id="m"><use transform="matrix(0.05,0,0,0.05,0,0)" xlink:href="#ap"/><use transform="matrix(0.05,0,0,0.05,5,0)" xlink:href="#ap"/><use transform="matrix(0.05,0,0,0.05,10,0)" xlink:href="#am"/></g><g id="n"><use transform="matrix(0.05,0,0,0.05,0,0)" xlink:href="#ai"/><use transform="matrix(0.05,0,0,0.05,16.599999999999998,0)" xlink:href="#af"/><use transform="matrix(0.05,0,0,0.05,26.599999999999994,0)" xlink:href="#ac"/></g><g id="o"><use transform="matrix(0.05,0,0,0.05,0,0)" xlink:href="#am"/><use transform="matrix(0.05,0,0,0.05,12,0)" xlink:href="#af"/><use transform="matrix(0.05,0,0,0.05,22,0)" xlink:href="#W"/><use transform="matrix(0.05,0,0,0.05,27.950000000000003,0)" xlink:href="#an"/><use transform="matrix(0.05,0,0,0.05,36.95,0)" xlink:href="#af"/><use transform="matrix(0.05,0,0,0.05,46.95,0)" xlink:href="#W"/></g><linearGradient gradientUnits="userSpaceOnUse" id="p" x1="985.18" y1="686.5" x2="985.18" y2="567.06"><stop offset="0%" stop-color="#0078d4"/><stop offset="16%" stop-color="#1380da"/><stop offset="53%" stop-color="#3c91e5"/><stop offset="82%" stop-color="#559cec"/><stop offset="100%" stop-color="#5ea0ef"/></linearGradient><path d="M127-220V0H93v-220H8v-28h204v28h-85" id="aq"/><g id="q"><use transform="matrix(0.05,0,0,0.05,0,0)" xlink:href="#aq"/><use transform="matrix(0.05,0,0,0.05,10.3,0)" xlink:href="#W"/><use transform="matrix(0.05,0,0,0.05,16.25,0)" xlink:href="#aj"/><use transform="matrix(0.05,0,0,0.05,20.2,0)" xlink:href="#V"/><use transform="matrix(0.05,0,0,0.05,30.200000000000003,0)" xlink:href="#V"/><use transform="matrix(0.05,0,0,0.05,40.2,0)" xlink:href="#af"/><use transform="matrix(0.05,0,0,0.05,50.2,0)" xlink:href="#W"/></g><path d="M210-169c-67 3-38 105-44 169h-31v-121c0-29-5-50-35-48C34-165 62-65 56 0H25l-1-190h30c1 10-1 24 2 32 10-44 99-50 107 0 11-21 27-35 58-36 85-2 47 119 55 194h-31v-121c0-29-5-49-35-48" id="ar"/><g id="r"><use transform="matrix(0.05,0,0,0.05,0,0)" xlink:href="#ar"/><use transform="matrix(0.05,0,0,0.05,14.950000000000001,0)" xlink:href="#S"/><use transform="matrix(0.05,0,0,0.05,24.950000000000003,0)" xlink:href="#Z"/><use transform="matrix(0.05,0,0,0.05,34.95,0)" xlink:href="#S"/><use transform="matrix(0.05,0,0,0.05,44.95,0)" xlink:href="#V"/><use transform="matrix(0.05,0,0,0.05,54.95,0)" xlink:href="#af"/><use transform="matrix(0.05,0,0,0.05,64.95,0)" xlink:href="#W"/></g><g id="s"><use transform="matrix(0.05,0,0,0.05,0,0)" xlink:href="#ah"/><use transform="matrix(0.05,0,0,0.05,5.95,0)" xlink:href="#ai"/><use transform="matrix(0.05,0,0,0.05,22.9,0)" xlink:href="#aj"/><use transform="matrix(0.05,0,0,0.05,26.849999999999994,0)" xlink:href="#Z"/><use transform="matrix(0.05,0,0,0.05,36.849999999999994,0)" xlink:href="#aa"/><use transform="matrix(0.05,0,0,0.05,46.849999999999994,0)" xlink:href="#X"/><use transform="matrix(0.05,0,0,0.05,56.849999999999994,0)" xlink:href="#ak"/><use transform="matrix(0.05,0,0,0.05,69.8,0)" xlink:href="#al"/></g><linearGradient gradientUnits="userSpaceOnUse" id="t" x1="1443.85" y1="778.5" x2="1534.85" y2="778.5"><stop offset="0%" stop-color="#005ba1"/><stop offset="7%" stop-color="#0060a9"/><stop offset="36%" stop-color="#0071c8"/><stop offset="52%" stop-color="#0078d4"/><stop offset="64%" stop-color="#0074cd"/><stop offset="82%" stop-color="#006abb"/><stop offset="100%" stop-color="#005ba1"/></linearGradient><radialGradient gradientUnits="userSpaceOnUse" id="u" fx="1489.67" fy="778.64" cx="1489.67" cy="778.64" r="82.6"><stop offset="0%" stop-color="#f2f2f2"/><stop offset="58%" stop-color="#eee"/><stop offset="100%" stop-color="#e6e6e6"/></radialGradient><path d="M140-251c81 0 123 46 123 126C263-53 228-8 163 1c7 30 30 48 69 40v23c-55 16-95-15-103-61C56-3 17-48 17-125c0-80 42-126 123-126zm0 227c63 0 89-41 89-101s-29-99-89-99c-61 0-89 39-89 99S79-25 140-24" id="as"/><path d="M30 0v-248h33v221h125V0H30" id="at"/><g id="v"><use transform="matrix(0.05,0,0,0.05,0,0)" xlink:href="#am"/><use transform="matrix(0.05,0,0,0.05,12,0)" xlink:href="#as"/><use transform="matrix(0.05,0,0,0.05,26,0)" xlink:href="#at"/></g><g id="w"><use transform="matrix(0.05,0,0,0.05,0,0)" xlink:href="#am"/><use transform="matrix(0.05,0,0,0.05,12,0)" xlink:href="#af"/><use transform="matrix(0.05,0,0,0.05,22,0)" xlink:href="#W"/><use transform="matrix(0.05,0,0,0.05,27.950000000000003,0)" xlink:href="#an"/><use transform="matrix(0.05,0,0,0.05,36.95,0)" xlink:href="#af"/><use transform="matrix(0.05,0,0,0.05,46.95,0)" xlink:href="#W"/></g><path d="M0 4l72-265h28L28 4H0" id="au"/><use transform="matrix(0.05,0,0,0.05,0,0)" xlink:href="#au" id="x"/><path d="M205 0l-28-72H64L36 0H1l101-248h38L239 0h-34zm-38-99l-47-123c-12 45-31 82-46 123h93" id="av"/><path d="M9 0v-24l116-142H16v-24h144v24L44-24h123V0H9" id="aw"/><g id="y"><use transform="matrix(0.05,0,0,0.05,0,0)" xlink:href="#av"/><use transform="matrix(0.05,0,0,0.05,12,0)" xlink:href="#aw"/><use transform="matrix(0.05,0,0,0.05,21,0)" xlink:href="#Y"/><use transform="matrix(0.05,0,0,0.05,31,0)" xlink:href="#W"/><use transform="matrix(0.05,0,0,0.05,36.95,0)" xlink:href="#af"/></g><g id="z"><use transform="matrix(0.05,0,0,0.05,0,0)" xlink:href="#am"/><use transform="matrix(0.05,0,0,0.05,12,0)" xlink:href="#as"/><use transform="matrix(0.05,0,0,0.05,26,0)" xlink:href="#at"/></g><linearGradient gradientUnits="userSpaceOnUse" id="A" x1="1498.75" y1="-48.63" x2="1424.37" y2="-120.35"><stop offset="0%" stop-color="#1988d9"/><stop offset="90%" stop-color="#54aef0"/></linearGradient><linearGradient gradientUnits="userSpaceOnUse" id="B" x1="1460.18" y1="-143.79" x2="1502.52" y2="-57.29"><stop offset="10%" stop-color="#54aef0"/><stop offset="29%" stop-color="#4fabee"/><stop offset="51%" stop-color="#41a2e9"/><stop offset="74%" stop-color="#2a93e0"/><stop offset="88%" stop-color="#1988d9"/></linearGradient><path d="M240 0l2-218c-23 76-54 145-80 218h-23L58-218 59 0H30v-248h44l77 211c21-75 51-140 76-211h43V0h-30" id="ax"/><path d="M101-234c-31-9-42 10-38 44h38v23H63V0H32v-167H5v-23h27c-7-52 17-82 69-68v24" id="ay"/><g id="C"><use transform="matrix(0.05,0,0,0.05,0,0)" xlink:href="#ax"/><use transform="matrix(0.05,0,0,0.05,14.950000000000001,0)" xlink:href="#aj"/><use transform="matrix(0.05,0,0,0.05,18.900000000000002,0)" xlink:href="#T"/><use transform="matrix(0.05,0,0,0.05,27.900000000000002,0)" xlink:href="#W"/><use transform="matrix(0.05,0,0,0.05,33.85,0)" xlink:href="#X"/><use transform="matrix(0.05,0,0,0.05,43.85,0)" xlink:href="#al"/><use transform="matrix(0.05,0,0,0.05,52.85,0)" xlink:href="#X"/><use transform="matrix(0.05,0,0,0.05,62.85,0)" xlink:href="#ay"/><use transform="matrix(0.05,0,0,0.05,67.85,0)" xlink:href="#ag"/></g><g id="D"><use transform="matrix(0.05,0,0,0.05,0,0)" xlink:href="#ad"/><use transform="matrix(0.05,0,0,0.05,12,0)" xlink:href="#Z"/><use transform="matrix(0.05,0,0,0.05,22,0)" xlink:href="#ag"/><use transform="matrix(0.05,0,0,0.05,27,0)" xlink:href="#W"/><use transform="matrix(0.05,0,0,0.05,32.95,0)" xlink:href="#S"/></g><path d="M30-248c118-7 216 8 213 122C240-48 200 0 122 0H30v-248zM63-27c89 8 146-16 146-99s-60-101-146-95v194" id="az"/><g id="E"><use transform="matrix(0.05,0,0,0.05,0,0)" xlink:href="#ap"/><use transform="matrix(0.05,0,0,0.05,5,0)" xlink:href="#az"/></g><linearGradient gradientUnits="userSpaceOnUse" id="F" x1="1489.35" y1="548.12" x2="1489.35" y2="451.22"><stop offset="0%" stop-color="#b3b3b3"/><stop offset="26%" stop-color="#c1c1c1"/><stop offset="100%" stop-color="#e6e6e6"/></linearGradient><g id="G"><use transform="matrix(0.05,0,0,0.05,0,0)" xlink:href="#av"/><use transform="matrix(0.05,0,0,0.05,12,0)" xlink:href="#aw"/><use transform="matrix(0.05,0,0,0.05,21,0)" xlink:href="#Y"/><use transform="matrix(0.05,0,0,0.05,31,0)" xlink:href="#W"/><use transform="matrix(0.05,0,0,0.05,36.95,0)" xlink:href="#af"/></g><g id="H"><use transform="matrix(0.05,0,0,0.05,0,0)" xlink:href="#am"/><use transform="matrix(0.05,0,0,0.05,12,0)" xlink:href="#ag"/><use transform="matrix(0.05,0,0,0.05,17,0)" xlink:href="#X"/><use transform="matrix(0.05,0,0,0.05,27,0)" xlink:href="#W"/><use transform="matrix(0.05,0,0,0.05,32.95,0)" xlink:href="#S"/><use transform="matrix(0.05,0,0,0.05,42.95,0)" xlink:href="#V"/><use transform="matrix(0.05,0,0,0.05,52.95,0)" xlink:href="#af"/></g><g id="I"><use transform="matrix(0.05,0,0,0.05,0,0)" xlink:href="#av"/><use transform="matrix(0.05,0,0,0.05,12,0)" xlink:href="#T"/><use transform="matrix(0.05,0,0,0.05,21,0)" xlink:href="#T"/><use transform="matrix(0.05,0,0,0.05,30,0)" xlink:href="#X"/><use transform="matrix(0.05,0,0,0.05,40,0)" xlink:href="#Y"/><use transform="matrix(0.05,0,0,0.05,50,0)" xlink:href="#Z"/><use transform="matrix(0.05,0,0,0.05,60,0)" xlink:href="#ag"/><use transform="matrix(0.05,0,0,0.05,65,0)" xlink:href="#al"/></g><linearGradient gradientUnits="userSpaceOnUse" id="J" x1="1865.35" y1="-147.37" x2="1865.35" y2="-40.63"><stop offset="0%" stop-color="#c69aeb"/><stop offset="100%" stop-color="#6f4bb2"/></linearGradient><linearGradient gradientUnits="userSpaceOnUse" id="K" x1="262968.78" y1="-264762.45" x2="262968.78" y2="-264975.43"><stop offset="0%" stop-color="#c69aeb"/><stop offset="100%" stop-color="#6f4bb2"/></linearGradient><g id="L"><use transform="matrix(0.05,0,0,0.05,0,0)" xlink:href="#am"/><use transform="matrix(0.05,0,0,0.05,12,0)" xlink:href="#af"/><use transform="matrix(0.05,0,0,0.05,22,0)" xlink:href="#W"/><use transform="matrix(0.05,0,0,0.05,27.950000000000003,0)" xlink:href="#an"/><use transform="matrix(0.05,0,0,0.05,36.95,0)" xlink:href="#aj"/><use transform="matrix(0.05,0,0,0.05,40.900000000000006,0)" xlink:href="#T"/><use transform="matrix(0.05,0,0,0.05,49.900000000000006,0)" xlink:href="#af"/></g><g id="M"><use transform="matrix(0.05,0,0,0.05,0,0)" xlink:href="#R"/><use transform="matrix(0.05,0,0,0.05,12,0)" xlink:href="#Y"/><use transform="matrix(0.05,0,0,0.05,22,0)" xlink:href="#al"/></g><path fill="#333" d="M238-95c0 69-44 99-111 99C63 4 22-25 22-93v-155h51v151c-1 38 19 59 55 60 90 1 49-130 58-211h52v153" id="aA"/><path fill="#333" d="M137-138c1-29-70-34-71-4 15 46 118 7 119 86 1 83-164 76-172 9l43-7c4 19 20 25 44 25 33 8 57-30 24-41C81-84 22-81 20-136c-2-80 154-74 161-7" id="aB"/><path fill="#333" d="M185-48c-13 30-37 53-82 52C43 2 14-33 14-96s30-98 90-98c62 0 83 45 84 108H66c0 31 8 55 39 56 18 0 30-7 34-22zm-45-69c5-46-57-63-70-21-2 6-4 13-4 21h74" id="aC"/><path fill="#333" d="M135-150c-39-12-60 13-60 57V0H25l-1-190h47c2 13-1 29 3 40 6-28 27-53 61-41v41" id="aD"/><g id="N"><use transform="matrix(0.04938271604938272,0,0,0.04938271604938272,0,0)" xlink:href="#aA"/><use transform="matrix(0.04938271604938272,0,0,0.04938271604938272,12.790123456790125,0)" xlink:href="#aB"/><use transform="matrix(0.04938271604938272,0,0,0.04938271604938272,22.66666666666667,0)" xlink:href="#aC"/><use transform="matrix(0.04938271604938272,0,0,0.04938271604938272,32.543209876543216,0)" xlink:href="#aD"/></g><path fill="#333" d="M133-34C117-15 103 5 69 4 32 3 11-16 11-54c-1-60 55-63 116-61 1-26-3-47-28-47-18 1-26 9-28 27l-52-2c7-38 36-58 82-57s74 22 75 68l1 82c-1 14 12 18 25 15v27c-30 8-71 5-69-32zm-48 3c29 0 43-24 42-57-32 0-66-3-65 30 0 17 8 27 23 27" id="aE"/><path fill="#333" d="M85 4C-2 5 27-109 22-190h50c7 57-23 150 33 157 60-5 35-97 40-157h50l1 190h-47c-2-12 1-28-3-38-12 25-28 42-61 42" id="aF"/><path fill="#333" d="M115-3C79 11 28 4 28-45v-112H4v-33h27l15-45h31v45h36v33H77v99c-1 23 16 31 38 25v30" id="aG"/><path fill="#333" d="M114-157C55-157 80-60 75 0H25v-261h50l-1 109c12-26 28-41 61-42 86-1 58 113 63 194h-50c-7-57 23-157-34-157" id="aH"/><path fill="#333" d="M135-194c87-1 58 113 63 194h-50c-7-57 23-157-34-157-59 0-34 97-39 157H25l-1-190h47c2 12-1 28 3 38 12-26 28-41 61-42" id="aI"/><path fill="#333" d="M25-224v-37h50v37H25zM25 0v-190h50V0H25" id="aJ"/><path fill="#333" d="M190-63c-7 42-38 67-86 67-59 0-84-38-90-98-12-110 154-137 174-36l-49 2c-2-19-15-32-35-32-30 0-35 28-38 64-6 74 65 87 74 30" id="aK"/><path fill="#333" d="M110-194c64 0 96 36 96 99 0 64-35 99-97 99-61 0-95-36-95-99 0-62 34-99 96-99zm-1 164c35 0 45-28 45-65 0-40-10-65-43-65-34 0-45 26-45 65 0 36 10 65 43 65" id="aL"/><g id="O"><use transform="matrix(0.04938271604938272,0,0,0.04938271604938272,0,0)" xlink:href="#aE"/><use transform="matrix(0.04938271604938272,0,0,0.04938271604938272,9.876543209876544,0)" xlink:href="#aF"/><use transform="matrix(0.04938271604938272,0,0,0.04938271604938272,20.69135802469136,0)" xlink:href="#aG"/><use transform="matrix(0.04938271604938272,0,0,0.04938271604938272,26.567901234567902,0)" xlink:href="#aH"/><use transform="matrix(0.04938271604938272,0,0,0.04938271604938272,37.38271604938272,0)" xlink:href="#aC"/><use transform="matrix(0.04938271604938272,0,0,0.04938271604938272,47.25925925925927,0)" xlink:href="#aI"/><use transform="matrix(0.04938271604938272,0,0,0.04938271604938272,58.074074074074076,0)" xlink:href="#aG"/><use transform="matrix(0.04938271604938272,0,0,0.04938271604938272,63.95061728395062,0)" xlink:href="#aJ"/><use transform="matrix(0.04938271604938272,0,0,0.04938271604938272,68.8888888888889,0)" xlink:href="#aK"/><use transform="matrix(0.04938271604938272,0,0,0.04938271604938272,78.76543209876544,0)" xlink:href="#aE"/><use transform="matrix(0.04938271604938272,0,0,0.04938271604938272,88.64197530864199,0)" xlink:href="#aG"/><use transform="matrix(0.04938271604938272,0,0,0.04938271604938272,94.51851851851853,0)" xlink:href="#aJ"/><use transform="matrix(0.04938271604938272,0,0,0.04938271604938272,99.45679012345681,0)" xlink:href="#aL"/><use transform="matrix(0.04938271604938272,0,0,0.04938271604938272,110.27160493827161,0)" xlink:href="#aI"/></g><linearGradient gradientUnits="userSpaceOnUse" id="P" x1="639.57" y1="-45.08" x2="639.57" y2="-141.99"><stop offset="0%" stop-color="#32bedd"/><stop offset="18%" stop-color="#32caea"/><stop offset="41%" stop-color="#32d2f2"/><stop offset="78%" stop-color="#32d4f5"/></linearGradient><path d="M63-220v92h138v28H63V0H30v-248h175v28H63" id="aM"/><g id="Q"><use transform="matrix(0.05,0,0,0.05,0,0)" xlink:href="#aM"/><use transform="matrix(0.05,0,0,0.05,10.950000000000001,0)" xlink:href="#W"/><use transform="matrix(0.05,0,0,0.05,16.900000000000002,0)" xlink:href="#X"/><use transform="matrix(0.05,0,0,0.05,26.900000000000002,0)" xlink:href="#Z"/><use transform="matrix(0.05,0,0,0.05,36.900000000000006,0)" xlink:href="#ag"/><use transform="matrix(0.05,0,0,0.05,41.900000000000006,0)" xlink:href="#af"/><use transform="matrix(0.05,0,0,0.05,51.900000000000006,0)" xlink:href="#Z"/><use transform="matrix(0.05,0,0,0.05,61.900000000000006,0)" xlink:href="#aa"/></g></defs></g></svg>